<svg width="313" height="97" viewBox="0 0 313 97" fill="none" xmlns="http://www.w3.org/2000/svg">
<path d="M17.6445 9.42609V37.7511L19.8661 39.1206V7.79297L17.6445 9.42609Z" fill="#FE5E14"/>
<path d="M21.1621 6.84009V39.9196L23.3838 41.2891V5.20728L21.1621 6.84009Z" fill="#FE5E14"/>
<path d="M24.6758 4.25446V42.0883L26.8974 43.4578V2.62134L24.6758 4.25446Z" fill="#FE5E14"/>
<path d="M28.1992 1.66889V44.257L30.4209 45.6268V0.0357666L28.1992 1.66889Z" fill="#FE5E14"/>
<path d="M40.0371 37.7346L52.7864 31.3601L65.0802 35.6857L65.3079 86.4343H53.5981L52.5587 33.4091L40.0371 37.7346Z" fill="#1F242E"/>
<path d="M30.416 47.9412L17.5705 39.9688L5.2765 44.2944L5.04883 86.4575L17.2215 86.4343L17.7981 42.0178L30.416 47.9412Z" fill="#1F242E"/>
<path d="M34.4897 8.05331L31.3887 6.38708V0L34.4897 1.66623V8.05331Z" fill="#FE5E14"/>
<path d="M38.7924 10.275L35.6914 8.60884V2.22168L38.7924 3.88791V10.275Z" fill="#FE5E14"/>
<path d="M34.4897 15.6207L31.3887 13.9545V7.56738L34.4897 9.23353V15.6207Z" fill="#FE5E14"/>
<path d="M38.7924 17.8424L35.6914 16.1762V9.78906L38.7924 11.4553V17.8424Z" fill="#FE5E14"/>
<path d="M34.4897 23.1884L31.3887 21.5222V15.135L34.4897 16.8012V23.1884Z" fill="#FE5E14"/>
<path d="M38.7924 25.4098L35.6914 23.7435V17.3564L38.7924 19.0226V25.4098Z" fill="#FE5E14"/>
<path d="M34.4897 30.755L31.3887 29.0888V22.7017L34.4897 24.3679V30.755Z" fill="#FE5E14"/>
<path d="M38.7924 32.9771L35.6914 31.3109V24.9238L38.7924 26.59V32.9771Z" fill="#FE5E14"/>
<path d="M34.4897 38.3224L31.3887 36.6562V30.269L34.4897 31.9353V38.3224Z" fill="#FE5E14"/>
<path d="M38.7924 40.5444L35.6914 38.8781V32.491L38.7924 34.1572V40.5444Z" fill="#FE5E14"/>
<path d="M34.4897 45.89L31.3887 44.2238V37.8367L34.4897 39.5029V45.89Z" fill="#FE5E14"/>
<path d="M38.7924 48.1117L35.6914 46.4455V40.0583L38.7924 41.7246V48.1117Z" fill="#FE5E14"/>
<path d="M34.4897 53.4574L31.3887 51.7911V45.4041L34.4897 47.0702V53.4574Z" fill="#FE5E14"/>
<path d="M38.7924 55.679L35.6914 54.0129V47.6257L38.7924 49.292V55.679Z" fill="#FE5E14"/>
<path d="M34.4897 61.0247L31.3887 59.3585V52.9714L34.4897 54.6376V61.0247Z" fill="#FE5E14"/>
<path d="M38.7924 63.2464L35.6914 61.5802V55.1931L38.7924 56.8593V63.2464Z" fill="#FE5E14"/>
<path d="M34.4897 68.5922L31.3887 66.926V60.5388L34.4897 62.205V68.5922Z" fill="#FE5E14"/>
<path d="M38.7924 70.8138L35.6914 69.1476V62.7605L38.7924 64.4267V70.8138Z" fill="#FE5E14"/>
<path d="M34.4897 76.1598L31.3887 74.4936V68.1064L34.4897 69.7727V76.1598Z" fill="#FE5E14"/>
<path d="M38.7924 78.3814L35.6914 76.7152V70.3281L38.7924 71.9943V78.3814Z" fill="#FE5E14"/>
<path d="M34.4897 83.7271L31.3887 82.061V75.6738L34.4897 77.3401V83.7271Z" fill="#FE5E14"/>
<path d="M38.7924 85.9484L35.6914 84.2822V77.895L38.7924 79.5613V85.9484Z" fill="#FE5E14"/>
<path d="M71.829 94.8959H0.218429C0.0977788 94.8959 0 94.6493 0 94.345V91.4442C0 91.1399 0.0977788 90.8933 0.218429 90.8933H71.829C71.9497 90.8933 72.0474 91.1399 72.0474 91.4442V94.345C72.0474 94.6493 71.9497 94.8959 71.829 94.8959Z" fill="#FE5E14"/>
<path d="M132.112 28.1869H124.33C124.188 27.1801 123.898 26.2858 123.459 25.5041C123.021 24.7105 122.458 24.0353 121.771 23.4786C121.084 22.9219 120.291 22.4955 119.391 22.1993C118.502 21.9032 117.537 21.7552 116.494 21.7552C114.611 21.7552 112.971 22.223 111.573 23.1588C110.175 24.0827 109.091 25.433 108.321 27.2097C107.552 28.9746 107.167 31.1186 107.167 33.6415C107.167 36.2356 107.552 38.415 108.321 40.1799C109.103 41.9448 110.193 43.2774 111.591 44.1776C112.988 45.0778 114.605 45.5279 116.441 45.5279C117.472 45.5279 118.425 45.3917 119.302 45.1193C120.19 44.8468 120.978 44.45 121.665 43.9288C122.352 43.3958 122.92 42.7503 123.37 41.9922C123.832 41.2341 124.152 40.3694 124.33 39.3982L132.112 39.4337C131.911 41.1038 131.407 42.7147 130.602 44.2664C129.808 45.8063 128.736 47.1862 127.386 48.4062C126.047 49.6144 124.448 50.5738 122.589 51.2845C120.741 51.9834 118.65 52.3328 116.317 52.3328C113.071 52.3328 110.169 51.5984 107.611 50.1297C105.064 48.6609 103.05 46.5347 101.57 43.7512C100.101 40.9676 99.3667 37.5977 99.3667 33.6415C99.3667 29.6735 100.113 26.2977 101.605 23.5141C103.098 20.7306 105.123 18.6103 107.682 17.1534C110.24 15.6846 113.119 14.9502 116.317 14.9502C118.425 14.9502 120.38 15.2464 122.18 15.8386C123.992 16.4309 125.597 17.2955 126.995 18.4327C128.393 19.5579 129.53 20.9379 130.406 22.5725C131.295 24.2071 131.863 26.0786 132.112 28.1869ZM171.067 33.6415C171.067 37.6096 170.315 40.9854 168.811 43.7689C167.318 46.5525 165.281 48.6787 162.699 50.1474C160.128 51.6044 157.238 52.3328 154.028 52.3328C150.794 52.3328 147.892 51.5984 145.322 50.1297C142.752 48.6609 140.72 46.5347 139.228 43.7512C137.735 40.9676 136.989 37.5977 136.989 33.6415C136.989 29.6735 137.735 26.2977 139.228 23.5141C140.72 20.7306 142.752 18.6103 145.322 17.1534C147.892 15.6846 150.794 14.9502 154.028 14.9502C157.238 14.9502 160.128 15.6846 162.699 17.1534C165.281 18.6103 167.318 20.7306 168.811 23.5141C170.315 26.2977 171.067 29.6735 171.067 33.6415ZM163.267 33.6415C163.267 31.0712 162.882 28.9036 162.112 27.1387C161.354 25.3738 160.282 24.0353 158.896 23.1232C157.51 22.2112 155.888 21.7552 154.028 21.7552C152.168 21.7552 150.546 22.2112 149.16 23.1232C147.774 24.0353 146.696 25.3738 145.926 27.1387C145.168 28.9036 144.789 31.0712 144.789 33.6415C144.789 36.2119 145.168 38.3795 145.926 40.1444C146.696 41.9093 147.774 43.2478 149.16 44.1598C150.546 45.0719 152.168 45.5279 154.028 45.5279C155.888 45.5279 157.51 45.0719 158.896 44.1598C160.282 43.2478 161.354 41.9093 162.112 40.1444C162.882 38.3795 163.267 36.2119 163.267 33.6415ZM207.201 15.4477V51.8353H200.556L184.726 28.9332H184.459V51.8353H176.766V15.4477H183.517L199.224 38.3321H199.544V15.4477H207.201ZM233.297 25.9127C233.155 24.4795 232.545 23.3661 231.467 22.5725C230.389 21.7788 228.926 21.382 227.079 21.382C225.823 21.382 224.763 21.5597 223.898 21.9151C223.034 22.2586 222.37 22.7383 221.908 23.3542C221.458 23.9702 221.233 24.669 221.233 25.4508C221.209 26.1022 221.346 26.6708 221.642 27.1564C221.95 27.6421 222.37 28.0626 222.903 28.4179C223.436 28.7614 224.052 29.0635 224.751 29.3241C225.45 29.5728 226.196 29.786 226.99 29.9637L230.259 30.7454C231.846 31.1008 233.303 31.5746 234.63 32.1668C235.956 32.7591 237.105 33.4875 238.077 34.3522C239.048 35.2169 239.8 36.2356 240.333 37.4082C240.878 38.5809 241.156 39.9253 241.168 41.4414C241.156 43.6683 240.588 45.599 239.462 47.2336C238.349 48.8563 236.738 50.1178 234.63 51.018C232.533 51.9064 230.004 52.3506 227.043 52.3506C224.106 52.3506 221.547 51.9005 219.368 51.0003C217.2 50.1 215.506 48.7675 214.286 47.0026C213.078 45.2259 212.444 43.0286 212.385 40.4109H219.83C219.912 41.6309 220.262 42.6496 220.878 43.4669C221.506 44.2723 222.341 44.8824 223.383 45.2969C224.437 45.6997 225.628 45.901 226.954 45.901C228.257 45.901 229.388 45.7115 230.348 45.3325C231.319 44.9534 232.071 44.4263 232.604 43.7512C233.137 43.076 233.404 42.3002 233.404 41.4236C233.404 40.6063 233.161 39.9193 232.675 39.3626C232.202 38.8059 231.503 38.3321 230.579 37.9412C229.667 37.5504 228.547 37.195 227.221 36.8752L223.259 35.8802C220.191 35.134 217.769 33.9673 215.992 32.38C214.215 30.7928 213.333 28.6548 213.344 25.966C213.333 23.7629 213.919 21.8381 215.103 20.1916C216.3 18.5452 217.94 17.26 220.025 16.3361C222.11 15.4122 224.479 14.9502 227.132 14.9502C229.833 14.9502 232.19 15.4122 234.203 16.3361C236.229 17.26 237.804 18.5452 238.929 20.1916C240.055 21.8381 240.635 23.7451 240.671 25.9127H233.297ZM244.957 21.7907V15.4477H274.842V21.7907H263.702V51.8353H256.097V21.7907H244.957ZM286.977 15.4477L294.315 27.8494H294.599L301.973 15.4477H310.661L299.556 33.6415L310.91 51.8353H302.061L294.599 39.4159H294.315L286.853 51.8353H278.04L289.429 33.6415L278.253 15.4477H286.977Z" fill="#1F242E"/>
<path d="M112.402 84.542H115.029C114.892 85.8006 114.532 86.927 113.948 87.9212C113.364 88.9153 112.539 89.7042 111.472 90.2879C110.405 90.8625 109.073 91.1498 107.477 91.1498C106.309 91.1498 105.247 90.9309 104.289 90.4932C103.341 90.0554 102.524 89.4352 101.84 88.6326C101.156 87.8208 100.627 86.8495 100.253 85.7185C99.8886 84.5785 99.7062 83.3107 99.7062 81.9152V79.9315C99.7062 78.5361 99.8886 77.2729 100.253 76.1419C100.627 75.0018 101.161 74.0259 101.854 73.2142C102.556 72.4025 103.4 71.7777 104.385 71.3399C105.37 70.9021 106.478 70.6832 107.709 70.6832C109.214 70.6832 110.487 70.966 111.526 71.5315C112.566 72.0969 113.373 72.8813 113.948 73.8846C114.532 74.8787 114.892 76.0325 115.029 77.3458H112.402C112.274 76.4155 112.037 75.6175 111.691 74.9517C111.344 74.2768 110.852 73.7569 110.213 73.3921C109.575 73.0272 108.74 72.8448 107.709 72.8448C106.825 72.8448 106.045 73.0135 105.37 73.351C104.704 73.6885 104.143 74.1673 103.687 74.7875C103.24 75.4077 102.903 76.151 102.675 77.0175C102.447 77.8839 102.333 78.8462 102.333 79.9042V81.9152C102.333 82.8911 102.433 83.8078 102.634 84.6651C102.844 85.5224 103.158 86.2749 103.578 86.9224C103.997 87.57 104.531 88.0808 105.179 88.4547C105.826 88.8195 106.592 89.0019 107.477 89.0019C108.599 89.0019 109.493 88.8241 110.158 88.4684C110.824 88.1127 111.326 87.6019 111.663 86.9361C112.01 86.2703 112.256 85.4723 112.402 84.542ZM122.337 83.639V83.3244C122.337 82.2573 122.492 81.2677 122.802 80.3556C123.112 79.4344 123.559 78.6364 124.142 77.9615C124.726 77.2774 125.433 76.7484 126.263 76.3745C127.093 75.9914 128.023 75.7999 129.054 75.7999C130.094 75.7999 131.028 75.9914 131.858 76.3745C132.698 76.7484 133.409 77.2774 133.993 77.9615C134.585 78.6364 135.037 79.4344 135.347 80.3556C135.657 81.2677 135.812 82.2573 135.812 83.3244V83.639C135.812 84.7061 135.657 85.6957 135.347 86.6078C135.037 87.5198 134.585 88.3179 133.993 89.0019C133.409 89.6769 132.702 90.2059 131.872 90.5889C131.051 90.9629 130.121 91.1498 129.081 91.1498C128.041 91.1498 127.107 90.9629 126.277 90.5889C125.447 90.2059 124.735 89.6769 124.142 89.0019C123.559 88.3179 123.112 87.5198 122.802 86.6078C122.492 85.6957 122.337 84.7061 122.337 83.639ZM124.867 83.3244V83.639C124.867 84.3778 124.954 85.0755 125.127 85.7322C125.301 86.3798 125.561 86.9544 125.907 87.456C126.263 87.9576 126.705 88.3544 127.234 88.6462C127.763 88.929 128.379 89.0703 129.081 89.0703C129.774 89.0703 130.381 88.929 130.901 88.6462C131.43 88.3544 131.868 87.9576 132.214 87.456C132.561 86.9544 132.821 86.3798 132.994 85.7322C133.176 85.0755 133.268 84.3778 133.268 83.639V83.3244C133.268 82.5947 133.176 81.9061 132.994 81.2586C132.821 80.6019 132.556 80.0227 132.2 79.5211C131.854 79.0103 131.416 78.609 130.887 78.3172C130.367 78.0253 129.756 77.8794 129.054 77.8794C128.361 77.8794 127.75 78.0253 127.221 78.3172C126.701 78.609 126.263 79.0103 125.907 79.5211C125.561 80.0227 125.301 80.6019 125.127 81.2586C124.954 81.9061 124.867 82.5947 124.867 83.3244ZM146.28 79.2338V90.8762H143.749V76.0735H146.143L146.28 79.2338ZM145.678 82.9139L144.625 82.8729C144.634 81.8605 144.784 80.9257 145.076 80.0683C145.368 79.2019 145.779 78.4494 146.308 77.811C146.837 77.1725 147.466 76.68 148.196 76.3334C148.934 75.9777 149.751 75.7999 150.644 75.7999C151.374 75.7999 152.031 75.9002 152.615 76.1009C153.198 76.2924 153.695 76.6025 154.106 77.0312C154.525 77.4598 154.844 78.0162 155.063 78.7002C155.282 79.3752 155.392 80.2006 155.392 81.1765V90.8762H152.847V81.1491C152.847 80.3739 152.733 79.7537 152.505 79.2885C152.277 78.8142 151.944 78.4722 151.506 78.2624C151.069 78.0436 150.53 77.9341 149.892 77.9341C149.263 77.9341 148.688 78.0664 148.168 78.3309C147.657 78.5953 147.215 78.9602 146.841 79.4253C146.476 79.8905 146.189 80.424 145.979 81.026C145.779 81.6188 145.678 82.2481 145.678 82.9139ZM172.618 86.9498C172.618 86.585 172.536 86.2475 172.372 85.9374C172.217 85.6182 171.893 85.3309 171.401 85.0755C170.917 84.811 170.188 84.583 169.212 84.3915C168.391 84.2182 167.647 84.013 166.982 83.7758C166.325 83.5387 165.764 83.2514 165.299 82.9139C164.843 82.5765 164.492 82.1797 164.245 81.7237C163.999 81.2677 163.876 80.7341 163.876 80.123C163.876 79.5393 164.004 78.9875 164.259 78.4677C164.524 77.9478 164.893 77.4872 165.367 77.0859C165.851 76.6846 166.43 76.3699 167.105 76.1419C167.78 75.9139 168.532 75.7999 169.362 75.7999C170.548 75.7999 171.56 76.0097 172.399 76.4292C173.238 76.8488 173.881 77.4097 174.328 78.112C174.775 78.8051 174.999 79.5758 174.999 80.424H172.468C172.468 80.0136 172.345 79.6169 172.098 79.2338C171.861 78.8416 171.51 78.5178 171.045 78.2624C170.589 78.0071 170.028 77.8794 169.362 77.8794C168.66 77.8794 168.09 77.9888 167.652 78.2077C167.223 78.4175 166.909 78.6866 166.708 79.0149C166.516 79.3432 166.421 79.6898 166.421 80.0546C166.421 80.3283 166.466 80.5745 166.558 80.7934C166.658 81.0032 166.831 81.1993 167.077 81.3817C167.324 81.555 167.67 81.7192 168.117 81.8742C168.564 82.0293 169.134 82.1843 169.827 82.3394C171.04 82.613 172.039 82.9413 172.823 83.3244C173.608 83.7074 174.191 84.1771 174.575 84.7335C174.958 85.2899 175.149 85.9648 175.149 86.7583C175.149 87.4058 175.012 87.9987 174.739 88.5368C174.474 89.0749 174.087 89.5401 173.576 89.9322C173.074 90.3153 172.472 90.6163 171.77 90.8352C171.077 91.045 170.297 91.1498 169.43 91.1498C168.126 91.1498 167.023 90.9173 166.12 90.4521C165.217 89.987 164.533 89.385 164.068 88.6462C163.602 87.9075 163.37 87.1277 163.37 86.3068H165.915C165.951 87 166.152 87.5518 166.516 87.9622C166.881 88.3635 167.328 88.6508 167.857 88.8241C168.386 88.9883 168.911 89.0703 169.43 89.0703C170.124 89.0703 170.703 88.9791 171.168 88.7967C171.642 88.6143 172.003 88.3635 172.249 88.0443C172.495 87.7251 172.618 87.3602 172.618 86.9498ZM189.434 76.0735V78.0162H181.431V76.0735H189.434ZM184.14 72.4754H186.671V87.2097C186.671 87.7114 186.748 88.0899 186.903 88.3453C187.058 88.6006 187.259 88.7694 187.505 88.8515C187.751 88.9335 188.016 88.9746 188.299 88.9746C188.508 88.9746 188.727 88.9563 188.955 88.9199C189.192 88.8743 189.37 88.8378 189.489 88.8104L189.503 90.8762C189.302 90.9401 189.037 90.9993 188.709 91.0541C188.39 91.1179 188.002 91.1498 187.546 91.1498C186.926 91.1498 186.356 91.0267 185.836 90.7805C185.316 90.5342 184.901 90.1238 184.591 89.5492C184.29 88.9655 184.14 88.1811 184.14 87.1961V72.4754ZM199.697 78.3993V90.8762H197.166V76.0735H199.629L199.697 78.3993ZM204.321 75.9914L204.307 78.3445C204.098 78.2989 203.897 78.2716 203.705 78.2624C203.523 78.2442 203.313 78.2351 203.076 78.2351C202.492 78.2351 201.977 78.3263 201.53 78.5087C201.083 78.6911 200.705 78.9465 200.395 79.2748C200.085 79.6032 199.838 79.9954 199.656 80.4514C199.483 80.8983 199.369 81.3908 199.314 81.9289L198.603 82.3394C198.603 81.4455 198.689 80.6064 198.862 79.8221C199.045 79.0377 199.323 78.3445 199.697 77.7426C200.071 77.1315 200.545 76.6572 201.12 76.3198C201.704 75.9732 202.397 75.7999 203.199 75.7999C203.382 75.7999 203.591 75.8227 203.829 75.8683C204.066 75.9048 204.23 75.9458 204.321 75.9914ZM220.48 87.456V76.0735H223.025V90.8762H220.604L220.48 87.456ZM220.959 84.3368L222.013 84.3094C222.013 85.2944 221.908 86.2065 221.698 87.0456C221.497 87.8755 221.169 88.5961 220.713 89.2072C220.257 89.8182 219.66 90.2971 218.921 90.6436C218.182 90.9811 217.284 91.1498 216.226 91.1498C215.505 91.1498 214.844 91.045 214.242 90.8352C213.649 90.6254 213.138 90.3016 212.71 89.8638C212.281 89.426 211.948 88.856 211.711 88.1537C211.483 87.4514 211.369 86.6078 211.369 85.6228V76.0735H213.9V85.6501C213.9 86.3159 213.973 86.8677 214.119 87.3055C214.274 87.7342 214.479 88.0762 214.734 88.3316C214.999 88.5778 215.291 88.7511 215.61 88.8515C215.938 88.9518 216.276 89.0019 216.622 89.0019C217.699 89.0019 218.551 88.7967 219.181 88.3863C219.81 87.9668 220.262 87.4058 220.535 86.7036C220.818 85.9921 220.959 85.2032 220.959 84.3368ZM237.57 89.0703C238.172 89.0703 238.728 88.9472 239.239 88.701C239.75 88.4547 240.169 88.1172 240.498 87.6886C240.826 87.2508 241.013 86.7537 241.059 86.1974H243.467C243.421 87.0729 243.124 87.8892 242.577 88.6462C242.039 89.3941 241.332 90.0006 240.457 90.4658C239.581 90.9218 238.619 91.1498 237.57 91.1498C236.457 91.1498 235.486 90.9537 234.656 90.5616C233.835 90.1694 233.151 89.6313 232.604 88.9472C232.066 88.2632 231.66 87.4788 231.386 86.5941C231.122 85.7003 230.99 84.7563 230.99 83.7622V83.1876C230.99 82.1934 231.122 81.254 231.386 80.3693C231.66 79.4755 232.066 78.6866 232.604 78.0025C233.151 77.3185 233.835 76.7804 234.656 76.3882C235.486 75.996 236.457 75.7999 237.57 75.7999C238.728 75.7999 239.741 76.037 240.607 76.5113C241.474 76.9764 242.153 77.6149 242.646 78.4266C243.147 79.2292 243.421 80.1413 243.467 81.1628H241.059C241.013 80.5517 240.84 79.9999 240.539 79.5074C240.247 79.0149 239.846 78.6227 239.335 78.3309C238.833 78.0299 238.245 77.8794 237.57 77.8794C236.795 77.8794 236.143 78.0344 235.614 78.3445C235.094 78.6455 234.679 79.0559 234.369 79.5758C234.068 80.0866 233.849 80.6566 233.712 81.2859C233.584 81.9061 233.521 82.54 233.521 83.1876V83.7622C233.521 84.4097 233.584 85.0482 233.712 85.6775C233.84 86.3068 234.054 86.8768 234.355 87.3876C234.665 87.8983 235.08 88.3088 235.6 88.6189C236.129 88.9199 236.786 89.0703 237.57 89.0703ZM257.273 76.0735V78.0162H249.269V76.0735H257.273ZM251.978 72.4754H254.509V87.2097C254.509 87.7114 254.587 88.0899 254.742 88.3453C254.897 88.6006 255.097 88.7694 255.344 88.8515C255.59 88.9335 255.854 88.9746 256.137 88.9746C256.347 88.9746 256.566 88.9563 256.794 88.9199C257.031 88.8743 257.209 88.8378 257.327 88.8104L257.341 90.8762C257.14 90.9401 256.876 90.9993 256.548 91.0541C256.228 91.1179 255.841 91.1498 255.385 91.1498C254.765 91.1498 254.195 91.0267 253.675 90.7805C253.155 90.5342 252.74 90.1238 252.43 89.5492C252.129 88.9655 251.978 88.1811 251.978 87.1961V72.4754ZM267.754 76.0735V90.8762H265.21V76.0735H267.754ZM265.018 72.1471C265.018 71.7367 265.141 71.3901 265.388 71.1073C265.643 70.8246 266.017 70.6832 266.509 70.6832C266.993 70.6832 267.362 70.8246 267.618 71.1073C267.882 71.3901 268.014 71.7367 268.014 72.1471C268.014 72.5393 267.882 72.8767 267.618 73.1595C267.362 73.4331 266.993 73.5699 266.509 73.5699C266.017 73.5699 265.643 73.4331 265.388 73.1595C265.141 72.8767 265.018 72.5393 265.018 72.1471ZM275.91 83.639V83.3244C275.91 82.2573 276.066 81.2677 276.376 80.3556C276.686 79.4344 277.133 78.6364 277.716 77.9615C278.3 77.2774 279.007 76.7484 279.837 76.3745C280.667 75.9914 281.597 75.7999 282.628 75.7999C283.668 75.7999 284.602 75.9914 285.432 76.3745C286.271 76.7484 286.983 77.2774 287.567 77.9615C288.159 78.6364 288.611 79.4344 288.921 80.3556C289.231 81.2677 289.386 82.2573 289.386 83.3244V83.639C289.386 84.7061 289.231 85.6957 288.921 86.6078C288.611 87.5198 288.159 88.3179 287.567 89.0019C286.983 89.6769 286.276 90.2059 285.446 90.5889C284.625 90.9629 283.695 91.1498 282.655 91.1498C281.615 91.1498 280.681 90.9629 279.851 90.5889C279.021 90.2059 278.309 89.6769 277.716 89.0019C277.133 88.3179 276.686 87.5198 276.376 86.6078C276.066 85.6957 275.91 84.7061 275.91 83.639ZM278.441 83.3244V83.639C278.441 84.3778 278.528 85.0755 278.701 85.7322C278.875 86.3798 279.135 86.9544 279.481 87.456C279.837 87.9576 280.279 88.3544 280.808 88.6462C281.337 88.929 281.953 89.0703 282.655 89.0703C283.348 89.0703 283.955 88.929 284.475 88.6462C285.004 88.3544 285.441 87.9576 285.788 87.456C286.135 86.9544 286.395 86.3798 286.568 85.7322C286.75 85.0755 286.841 84.3778 286.841 83.639V83.3244C286.841 82.5947 286.75 81.9061 286.568 81.2586C286.395 80.6019 286.13 80.0227 285.774 79.5211C285.428 79.0103 284.99 78.609 284.461 78.3172C283.941 78.0253 283.33 77.8794 282.628 77.8794C281.935 77.8794 281.324 78.0253 280.795 78.3172C280.275 78.609 279.837 79.0103 279.481 79.5211C279.135 80.0227 278.875 80.6019 278.701 81.2586C278.528 81.9061 278.441 82.5947 278.441 83.3244ZM299.854 79.2338V90.8762H297.323V76.0735H299.717L299.854 79.2338ZM299.252 82.9139L298.199 82.8729C298.208 81.8605 298.358 80.9257 298.65 80.0683C298.942 79.2019 299.353 78.4494 299.882 77.811C300.411 77.1725 301.04 76.68 301.77 76.3334C302.508 75.9777 303.325 75.7999 304.218 75.7999C304.948 75.7999 305.605 75.9002 306.188 76.1009C306.772 76.2924 307.269 76.6025 307.68 77.0312C308.099 77.4598 308.418 78.0162 308.637 78.7002C308.856 79.3752 308.966 80.2006 308.966 81.1765V90.8762H306.421V81.1491C306.421 80.3739 306.307 79.7537 306.079 79.2885C305.851 78.8142 305.518 78.4722 305.08 78.2624C304.642 78.0436 304.104 77.9341 303.466 77.9341C302.837 77.9341 302.262 78.0664 301.742 78.3309C301.231 78.5953 300.789 78.9602 300.415 79.4253C300.05 79.8905 299.763 80.424 299.553 81.026C299.353 81.6188 299.252 82.2481 299.252 82.9139Z" fill="#FD5D14"/>
</svg>
