<svg width="61" height="54" viewBox="0 0 61 54" fill="none" xmlns="http://www.w3.org/2000/svg">
<mask id="path-1-inside-1_1_1609" fill="white">
<path d="M53.6694 31.4782H40.0688C39.575 31.4782 39.1749 31.8816 39.1749 32.3793C39.1749 32.877 39.575 33.2804 40.0688 33.2804H52.7754V44.3035H32.7894V33.2804H36.4932C36.987 33.2804 37.3871 32.877 37.3871 32.3793C37.3871 31.8816 36.987 31.4782 36.4932 31.4782H31.8955C31.4017 31.4782 31.0016 31.8816 31.0016 32.3793V45.2046C31.0016 45.7023 31.4018 46.1058 31.8955 46.1058H53.6694C54.1633 46.1058 54.5633 45.7023 54.5633 45.2046V32.3793C54.5633 31.8817 54.1632 31.4782 53.6694 31.4782Z"/>
<path d="M18.9779 32.0015H14.5391C13.4276 32.0015 12.5234 32.9129 12.5234 34.0335V43.6185C12.5234 44.7389 13.4276 45.6505 14.5391 45.6505H18.9779C20.0893 45.6505 20.9935 44.739 20.9935 43.6185V34.0334C20.9935 32.9129 20.0893 32.0015 18.9779 32.0015ZM19.2057 43.6184C19.2057 43.7449 19.1036 43.8481 18.9779 43.8481H14.5391C14.4135 43.8481 14.3113 43.7452 14.3113 43.6184V34.0334C14.3113 33.9068 14.4134 33.8036 14.5391 33.8036H18.9779C19.1035 33.8036 19.2057 33.9065 19.2057 34.0334V43.6184Z"/>
<path d="M16.7581 48.4489C17.294 48.4489 17.7284 48.011 17.7284 47.4708C17.7284 46.9306 17.294 46.4927 16.7581 46.4927C16.2222 46.4927 15.7878 46.9306 15.7878 47.4708C15.7878 48.011 16.2222 48.4489 16.7581 48.4489Z"/>
<path d="M58.5092 48.8673V30.9703C58.5092 29.0579 56.966 27.5023 55.0689 27.5023H52.2663V23.4431C52.2663 22.9454 51.8662 22.5419 51.3724 22.5419C50.8785 22.5419 50.4785 22.9454 50.4785 23.4431V27.5023H47.6671V7.97117C47.6671 6.13229 46.1831 4.6363 44.3588 4.6363H17.0943C16.6005 4.6363 16.2004 5.03972 16.2004 5.53742C16.2004 6.03512 16.6005 6.43855 17.0943 6.43855H44.3589C45.1973 6.43855 45.8794 7.12613 45.8794 7.97117V27.5023H30.5036C28.6065 27.5023 27.0633 29.0579 27.0633 30.9703V34.3156H24.2844V31.6483C24.2844 30.0195 22.9698 28.6944 21.354 28.6944H12.1743C10.5585 28.6944 9.244 30.0196 9.244 31.6483V34.3156H7.90736C7.06897 34.3156 6.38701 33.6281 6.38701 32.7829V7.97117C6.38701 7.12601 7.06909 6.43855 7.90736 6.43855H13.5185C14.0122 6.43855 14.4124 6.03512 14.4124 5.53742C14.4124 5.03972 14.0122 4.6363 13.5185 4.6363H7.90736C6.0832 4.6363 4.59919 6.13241 4.59919 7.97117V32.7829C4.59919 34.6218 6.08332 36.1179 7.90736 36.1179H9.24412V41.6012H7.90736C4.53294 41.6012 1.78782 38.8338 1.78782 35.4322V7.97117C1.78782 4.56952 4.53294 1.80225 7.90736 1.80225H44.3588C47.7332 1.80225 50.4785 4.56952 50.4785 7.97117V19.8384C50.4785 20.3361 50.8785 20.7396 51.3724 20.7396C51.8662 20.7396 52.2663 20.3361 52.2663 19.8384V7.97117C52.2663 3.5758 48.719 0 44.3588 0H7.90736C3.54717 0 0 3.5758 0 7.97117V35.4322C0 39.8276 3.54717 43.4034 7.90736 43.4034H9.244V48.2644C9.244 49.8932 10.5586 51.2183 12.1743 51.2183H21.354C22.97 51.2183 24.2844 49.8931 24.2844 48.2644V43.4034H27.0633V48.8673C25.5803 49.6876 24.5726 51.2767 24.5726 53.0989C24.5726 53.5966 24.9727 54 25.4665 54H60.1061C60.5999 54 61 53.5966 61 53.0989C61 51.2767 59.9923 49.6875 58.5092 48.8673ZM22.4966 48.2643C22.4966 48.8993 21.9841 49.4159 21.354 49.4159H12.1743C11.5444 49.4159 11.0318 48.8993 11.0318 48.2643V31.6483C11.0318 31.0133 11.5444 30.4967 12.1743 30.4967H21.354C21.9841 30.4967 22.4966 31.0133 22.4966 31.6483V48.2643ZM28.8511 30.9704C28.8511 30.0519 29.5925 29.3046 30.5036 29.3046H55.0691C55.9802 29.3046 56.7215 30.052 56.7215 30.9704V48.3022C56.7189 48.302 56.7138 48.3016 56.7138 48.3016C56.5481 48.2847 56.3818 48.2753 56.2151 48.2753H29.3576C29.1915 48.2753 29.0241 48.2842 28.8588 48.3016C28.8588 48.3016 28.8537 48.3019 28.8511 48.3022V30.9704ZM24.2846 41.6012V36.1179H27.0634V41.6012H24.2846ZM26.4965 52.1979C26.7747 51.302 27.4573 50.5861 28.3269 50.2639C28.6559 50.1422 29.0067 50.0776 29.3576 50.0776H56.215C56.565 50.0776 56.9165 50.1422 57.2452 50.2637C58.115 50.586 58.7977 51.3019 59.076 52.1979H26.4965Z"/>
</mask>
<path d="M53.6694 31.4782H40.0688C39.575 31.4782 39.1749 31.8816 39.1749 32.3793C39.1749 32.877 39.575 33.2804 40.0688 33.2804H52.7754V44.3035H32.7894V33.2804H36.4932C36.987 33.2804 37.3871 32.877 37.3871 32.3793C37.3871 31.8816 36.987 31.4782 36.4932 31.4782H31.8955C31.4017 31.4782 31.0016 31.8816 31.0016 32.3793V45.2046C31.0016 45.7023 31.4018 46.1058 31.8955 46.1058H53.6694C54.1633 46.1058 54.5633 45.7023 54.5633 45.2046V32.3793C54.5633 31.8817 54.1632 31.4782 53.6694 31.4782Z" fill="#1F242E"/>
<path d="M18.9779 32.0015H14.5391C13.4276 32.0015 12.5234 32.9129 12.5234 34.0335V43.6185C12.5234 44.7389 13.4276 45.6505 14.5391 45.6505H18.9779C20.0893 45.6505 20.9935 44.739 20.9935 43.6185V34.0334C20.9935 32.9129 20.0893 32.0015 18.9779 32.0015ZM19.2057 43.6184C19.2057 43.7449 19.1036 43.8481 18.9779 43.8481H14.5391C14.4135 43.8481 14.3113 43.7452 14.3113 43.6184V34.0334C14.3113 33.9068 14.4134 33.8036 14.5391 33.8036H18.9779C19.1035 33.8036 19.2057 33.9065 19.2057 34.0334V43.6184Z" fill="#1F242E"/>
<path d="M16.7581 48.4489C17.294 48.4489 17.7284 48.011 17.7284 47.4708C17.7284 46.9306 17.294 46.4927 16.7581 46.4927C16.2222 46.4927 15.7878 46.9306 15.7878 47.4708C15.7878 48.011 16.2222 48.4489 16.7581 48.4489Z" fill="#1F242E"/>
<path d="M58.5092 48.8673V30.9703C58.5092 29.0579 56.966 27.5023 55.0689 27.5023H52.2663V23.4431C52.2663 22.9454 51.8662 22.5419 51.3724 22.5419C50.8785 22.5419 50.4785 22.9454 50.4785 23.4431V27.5023H47.6671V7.97117C47.6671 6.13229 46.1831 4.6363 44.3588 4.6363H17.0943C16.6005 4.6363 16.2004 5.03972 16.2004 5.53742C16.2004 6.03512 16.6005 6.43855 17.0943 6.43855H44.3589C45.1973 6.43855 45.8794 7.12613 45.8794 7.97117V27.5023H30.5036C28.6065 27.5023 27.0633 29.0579 27.0633 30.9703V34.3156H24.2844V31.6483C24.2844 30.0195 22.9698 28.6944 21.354 28.6944H12.1743C10.5585 28.6944 9.244 30.0196 9.244 31.6483V34.3156H7.90736C7.06897 34.3156 6.38701 33.6281 6.38701 32.7829V7.97117C6.38701 7.12601 7.06909 6.43855 7.90736 6.43855H13.5185C14.0122 6.43855 14.4124 6.03512 14.4124 5.53742C14.4124 5.03972 14.0122 4.6363 13.5185 4.6363H7.90736C6.0832 4.6363 4.59919 6.13241 4.59919 7.97117V32.7829C4.59919 34.6218 6.08332 36.1179 7.90736 36.1179H9.24412V41.6012H7.90736C4.53294 41.6012 1.78782 38.8338 1.78782 35.4322V7.97117C1.78782 4.56952 4.53294 1.80225 7.90736 1.80225H44.3588C47.7332 1.80225 50.4785 4.56952 50.4785 7.97117V19.8384C50.4785 20.3361 50.8785 20.7396 51.3724 20.7396C51.8662 20.7396 52.2663 20.3361 52.2663 19.8384V7.97117C52.2663 3.5758 48.719 0 44.3588 0H7.90736C3.54717 0 0 3.5758 0 7.97117V35.4322C0 39.8276 3.54717 43.4034 7.90736 43.4034H9.244V48.2644C9.244 49.8932 10.5586 51.2183 12.1743 51.2183H21.354C22.97 51.2183 24.2844 49.8931 24.2844 48.2644V43.4034H27.0633V48.8673C25.5803 49.6876 24.5726 51.2767 24.5726 53.0989C24.5726 53.5966 24.9727 54 25.4665 54H60.1061C60.5999 54 61 53.5966 61 53.0989C61 51.2767 59.9923 49.6875 58.5092 48.8673ZM22.4966 48.2643C22.4966 48.8993 21.9841 49.4159 21.354 49.4159H12.1743C11.5444 49.4159 11.0318 48.8993 11.0318 48.2643V31.6483C11.0318 31.0133 11.5444 30.4967 12.1743 30.4967H21.354C21.9841 30.4967 22.4966 31.0133 22.4966 31.6483V48.2643ZM28.8511 30.9704C28.8511 30.0519 29.5925 29.3046 30.5036 29.3046H55.0691C55.9802 29.3046 56.7215 30.052 56.7215 30.9704V48.3022C56.7189 48.302 56.7138 48.3016 56.7138 48.3016C56.5481 48.2847 56.3818 48.2753 56.2151 48.2753H29.3576C29.1915 48.2753 29.0241 48.2842 28.8588 48.3016C28.8588 48.3016 28.8537 48.3019 28.8511 48.3022V30.9704ZM24.2846 41.6012V36.1179H27.0634V41.6012H24.2846ZM26.4965 52.1979C26.7747 51.302 27.4573 50.5861 28.3269 50.2639C28.6559 50.1422 29.0067 50.0776 29.3576 50.0776H56.215C56.565 50.0776 56.9165 50.1422 57.2452 50.2637C58.115 50.586 58.7977 51.3019 59.076 52.1979H26.4965Z" fill="#1F242E"/>
<path d="M53.6694 31.4782H40.0688C39.575 31.4782 39.1749 31.8816 39.1749 32.3793C39.1749 32.877 39.575 33.2804 40.0688 33.2804H52.7754V44.3035H32.7894V33.2804H36.4932C36.987 33.2804 37.3871 32.877 37.3871 32.3793C37.3871 31.8816 36.987 31.4782 36.4932 31.4782H31.8955C31.4017 31.4782 31.0016 31.8816 31.0016 32.3793V45.2046C31.0016 45.7023 31.4018 46.1058 31.8955 46.1058H53.6694C54.1633 46.1058 54.5633 45.7023 54.5633 45.2046V32.3793C54.5633 31.8817 54.1632 31.4782 53.6694 31.4782Z" stroke="black" stroke-width="2" mask="url(#path-1-inside-1_1_1609)"/>
<path d="M18.9779 32.0015H14.5391C13.4276 32.0015 12.5234 32.9129 12.5234 34.0335V43.6185C12.5234 44.7389 13.4276 45.6505 14.5391 45.6505H18.9779C20.0893 45.6505 20.9935 44.739 20.9935 43.6185V34.0334C20.9935 32.9129 20.0893 32.0015 18.9779 32.0015ZM19.2057 43.6184C19.2057 43.7449 19.1036 43.8481 18.9779 43.8481H14.5391C14.4135 43.8481 14.3113 43.7452 14.3113 43.6184V34.0334C14.3113 33.9068 14.4134 33.8036 14.5391 33.8036H18.9779C19.1035 33.8036 19.2057 33.9065 19.2057 34.0334V43.6184Z" stroke="black" stroke-width="2" mask="url(#path-1-inside-1_1_1609)"/>
<path d="M16.7581 48.4489C17.294 48.4489 17.7284 48.011 17.7284 47.4708C17.7284 46.9306 17.294 46.4927 16.7581 46.4927C16.2222 46.4927 15.7878 46.9306 15.7878 47.4708C15.7878 48.011 16.2222 48.4489 16.7581 48.4489Z" stroke="black" stroke-width="2" mask="url(#path-1-inside-1_1_1609)"/>
<path d="M58.5092 48.8673V30.9703C58.5092 29.0579 56.966 27.5023 55.0689 27.5023H52.2663V23.4431C52.2663 22.9454 51.8662 22.5419 51.3724 22.5419C50.8785 22.5419 50.4785 22.9454 50.4785 23.4431V27.5023H47.6671V7.97117C47.6671 6.13229 46.1831 4.6363 44.3588 4.6363H17.0943C16.6005 4.6363 16.2004 5.03972 16.2004 5.53742C16.2004 6.03512 16.6005 6.43855 17.0943 6.43855H44.3589C45.1973 6.43855 45.8794 7.12613 45.8794 7.97117V27.5023H30.5036C28.6065 27.5023 27.0633 29.0579 27.0633 30.9703V34.3156H24.2844V31.6483C24.2844 30.0195 22.9698 28.6944 21.354 28.6944H12.1743C10.5585 28.6944 9.244 30.0196 9.244 31.6483V34.3156H7.90736C7.06897 34.3156 6.38701 33.6281 6.38701 32.7829V7.97117C6.38701 7.12601 7.06909 6.43855 7.90736 6.43855H13.5185C14.0122 6.43855 14.4124 6.03512 14.4124 5.53742C14.4124 5.03972 14.0122 4.6363 13.5185 4.6363H7.90736C6.0832 4.6363 4.59919 6.13241 4.59919 7.97117V32.7829C4.59919 34.6218 6.08332 36.1179 7.90736 36.1179H9.24412V41.6012H7.90736C4.53294 41.6012 1.78782 38.8338 1.78782 35.4322V7.97117C1.78782 4.56952 4.53294 1.80225 7.90736 1.80225H44.3588C47.7332 1.80225 50.4785 4.56952 50.4785 7.97117V19.8384C50.4785 20.3361 50.8785 20.7396 51.3724 20.7396C51.8662 20.7396 52.2663 20.3361 52.2663 19.8384V7.97117C52.2663 3.5758 48.719 0 44.3588 0H7.90736C3.54717 0 0 3.5758 0 7.97117V35.4322C0 39.8276 3.54717 43.4034 7.90736 43.4034H9.244V48.2644C9.244 49.8932 10.5586 51.2183 12.1743 51.2183H21.354C22.97 51.2183 24.2844 49.8931 24.2844 48.2644V43.4034H27.0633V48.8673C25.5803 49.6876 24.5726 51.2767 24.5726 53.0989C24.5726 53.5966 24.9727 54 25.4665 54H60.1061C60.5999 54 61 53.5966 61 53.0989C61 51.2767 59.9923 49.6875 58.5092 48.8673ZM22.4966 48.2643C22.4966 48.8993 21.9841 49.4159 21.354 49.4159H12.1743C11.5444 49.4159 11.0318 48.8993 11.0318 48.2643V31.6483C11.0318 31.0133 11.5444 30.4967 12.1743 30.4967H21.354C21.9841 30.4967 22.4966 31.0133 22.4966 31.6483V48.2643ZM28.8511 30.9704C28.8511 30.0519 29.5925 29.3046 30.5036 29.3046H55.0691C55.9802 29.3046 56.7215 30.052 56.7215 30.9704V48.3022C56.7189 48.302 56.7138 48.3016 56.7138 48.3016C56.5481 48.2847 56.3818 48.2753 56.2151 48.2753H29.3576C29.1915 48.2753 29.0241 48.2842 28.8588 48.3016C28.8588 48.3016 28.8537 48.3019 28.8511 48.3022V30.9704ZM24.2846 41.6012V36.1179H27.0634V41.6012H24.2846ZM26.4965 52.1979C26.7747 51.302 27.4573 50.5861 28.3269 50.2639C28.6559 50.1422 29.0067 50.0776 29.3576 50.0776H56.215C56.565 50.0776 56.9165 50.1422 57.2452 50.2637C58.115 50.586 58.7977 51.3019 59.076 52.1979H26.4965Z" stroke="black" stroke-width="2" mask="url(#path-1-inside-1_1_1609)"/>
</svg>
