<svg width="54" height="54" viewBox="0 0 54 54" fill="none" xmlns="http://www.w3.org/2000/svg">
<path d="M50.2031 2.53125C50.4361 2.53125 50.625 2.34237 50.625 2.10938C50.625 1.87638 50.4361 1.6875 50.2031 1.6875C49.9701 1.6875 49.7813 1.87638 49.7813 2.10938C49.7813 2.34237 49.9701 2.53125 50.2031 2.53125Z" fill="black"/>
<path d="M48.955 2.146C48.9689 1.91343 48.7917 1.71356 48.5592 1.69957C48.3266 1.68559 48.1267 1.86279 48.1127 2.09537C48.0988 2.32794 48.276 2.52782 48.5085 2.5418C48.7411 2.55578 48.941 2.37858 48.955 2.146Z" fill="black"/>
<path d="M47.267 2.146C47.281 1.91343 47.1038 1.71356 46.8713 1.69957C46.6387 1.68559 46.4388 1.86279 46.4248 2.09537C46.4108 2.32794 46.588 2.52782 46.8206 2.5418C47.0532 2.55578 47.2531 2.37858 47.267 2.146Z" fill="black"/>
<path d="M52.3125 0H1.6875C0.759289 0 0 0.759291 0 1.6875V52.3125C0 53.2407 0.759289 54 1.6875 54H52.3125C53.2407 54 54 53.2407 54 52.3125V1.6875C54 0.759291 53.2407 0 52.3125 0ZM1.6875 0.84375H52.3125C52.7778 0.84375 53.1563 1.22238 53.1563 1.6875V3.375H0.84375V1.6875C0.84375 1.22238 1.22217 0.84375 1.6875 0.84375ZM52.3125 53.1563H1.6875C1.22217 53.1563 0.84375 52.7776 0.84375 52.3125V4.21875H53.1563V52.3125C53.1563 52.7776 52.7778 53.1563 52.3125 53.1563Z" fill="black"/>
<path d="M48.9375 29.5313H29.5313C28.603 29.5313 27.8438 30.2905 27.8438 31.2188V48.9375C27.8438 49.8657 28.603 50.625 29.5313 50.625H48.9375C49.8657 50.625 50.625 49.8657 50.625 48.9375V31.2188C50.625 30.2905 49.8657 29.5313 48.9375 29.5313ZM48.9375 49.7813H29.5313C29.0659 49.7813 28.6875 49.4026 28.6875 48.9375V31.2188C28.6875 30.7536 29.0659 30.375 29.5313 30.375H48.9375C49.4028 30.375 49.7813 30.7536 49.7813 31.2188V46.1253L39.4091 35.3415C39.3557 35.2863 39.2883 35.2463 39.214 35.2266L32.1715 33.3426C32.0281 33.3034 31.8736 33.3446 31.7667 33.4492C31.6602 33.5539 31.6169 33.7076 31.6532 33.8522L33.3073 40.465C33.325 40.5354 33.3603 40.6001 33.4101 40.6528L41.5184 49.2275C41.6014 49.3153 41.7131 49.3594 41.8249 49.3594C41.929 49.3594 42.0332 49.3211 42.1148 49.244C42.2841 49.0838 42.2915 48.8168 42.1315 48.6475L34.0991 40.1531L32.6457 34.3429L38.2804 35.8499L36.0083 38.232C35.8474 38.4005 35.8538 38.6679 36.0223 38.8286C36.1041 38.9065 36.2089 38.9452 36.3136 38.9452C36.4248 38.9452 36.5361 38.9015 36.6189 38.8146L39.0885 36.2252L49.7813 47.3427V48.9375C49.7813 49.4026 49.4028 49.7813 48.9375 49.7813Z" fill="black"/>
<path d="M5.0625 27.8438H24.4688C25.397 27.8438 26.1563 27.0845 26.1563 26.1563V18.5625H25.3125V26.1563C25.3125 26.6214 24.9341 27 24.4688 27H5.0625C4.59717 27 4.21875 26.6214 4.21875 26.1563V8.4375C4.21875 7.97238 4.59717 7.59375 5.0625 7.59375H24.4688C24.9341 7.59375 25.3125 7.97238 25.3125 8.4375V16.0312H26.1563V8.4375C26.1563 7.50929 25.397 6.75 24.4688 6.75H5.0625C4.13429 6.75 3.375 7.50929 3.375 8.4375V26.1563C3.375 27.0845 4.13429 27.8438 5.0625 27.8438Z" fill="black"/>
<path d="M17.7188 16.875C17.4858 16.875 17.2969 17.0637 17.2969 17.2969C17.2969 17.53 17.4858 17.7188 17.7188 17.7188H18.1406C18.3736 17.7188 18.5625 17.53 18.5625 17.2969C18.5625 17.0637 18.3736 16.875 18.1406 16.875H17.7188Z" fill="black"/>
<path d="M22.3594 16.875C22.1264 16.875 21.9375 17.0637 21.9375 17.2969C21.9375 17.53 22.1264 17.7188 22.3594 17.7188H23.2031C23.4361 17.7188 23.625 17.53 23.625 17.2969C23.625 17.0637 23.4361 16.875 23.2031 16.875H22.3594Z" fill="black"/>
<path d="M24.8906 16.875C24.6577 16.875 24.4688 17.0637 24.4688 17.2969C24.4688 17.53 24.6577 17.7188 24.8906 17.7188H25.7344C25.9673 17.7188 26.1563 17.53 26.1563 17.2969C26.1563 17.0637 25.9673 16.875 25.7344 16.875H24.8906Z" fill="black"/>
<path d="M28.6875 17.2969C28.6875 17.0637 28.4986 16.875 28.2656 16.875H27.4219C27.1889 16.875 27 17.0637 27 17.2969C27 17.53 27.1889 17.7188 27.4219 17.7188H28.2656C28.4986 17.7188 28.6875 17.53 28.6875 17.2969Z" fill="black"/>
<path d="M19.8281 16.875C19.5952 16.875 19.4062 17.0637 19.4062 17.2969C19.4062 17.53 19.5952 17.7188 19.8281 17.7188H20.6719C20.9048 17.7188 21.0938 17.53 21.0938 17.2969C21.0938 17.0637 20.9048 16.875 20.6719 16.875H19.8281Z" fill="black"/>
<path d="M34.5938 17.2969C34.5938 17.53 34.7827 17.7188 35.0156 17.7188H35.8594C36.0923 17.7188 36.2812 17.53 36.2812 17.2969C36.2812 17.0637 36.0923 16.875 35.8594 16.875H35.0156C34.7827 16.875 34.5938 17.0637 34.5938 17.2969Z" fill="black"/>
<path d="M29.9531 17.7188H30.7969C31.0298 17.7188 31.2188 17.53 31.2188 17.2969C31.2188 17.0637 31.0298 16.875 30.7969 16.875H29.9531C29.7202 16.875 29.5313 17.0637 29.5313 17.2969C29.5313 17.53 29.7202 17.7188 29.9531 17.7188Z" fill="black"/>
<path d="M32.4844 17.7188H33.3281C33.5611 17.7188 33.75 17.53 33.75 17.2969C33.75 17.0637 33.5611 16.875 33.3281 16.875H32.4844C32.2514 16.875 32.0625 17.0637 32.0625 17.2969C32.0625 17.53 32.2514 17.7188 32.4844 17.7188Z" fill="black"/>
<path d="M37.125 17.2969C37.125 17.4955 37.2651 17.6545 37.4498 17.699C37.4575 17.7624 37.4752 17.8251 37.5131 17.8819C37.5945 18.0039 37.7282 18.0698 37.8645 18.0698C37.9449 18.0698 38.0262 18.0467 38.0981 17.9989L38.6246 17.6479C38.742 17.5696 38.8125 17.4378 38.8125 17.2969C38.8125 17.156 38.742 17.0241 38.6246 16.9459L38.0981 16.5948C37.9039 16.4655 37.6425 16.5178 37.5131 16.7119C37.4752 16.7687 37.4575 16.8313 37.4498 16.8948C37.2651 16.9393 37.125 17.0983 37.125 17.2969Z" fill="black"/>
<path d="M36.6199 15.6094L36.0934 15.2584C35.8991 15.129 35.6375 15.1813 35.5084 15.3754C35.3792 15.5694 35.4315 15.831 35.6254 15.9604L36.1519 16.3114C36.2238 16.3592 36.3051 16.3823 36.3855 16.3823C36.5218 16.3823 36.6555 16.3164 36.7369 16.1944C36.8661 16.0004 36.8137 15.7387 36.6199 15.6094Z" fill="black"/>
<path d="M36.1519 18.2823L35.6254 18.6334C35.4315 18.7627 35.3792 19.0243 35.5084 19.2184C35.5897 19.3404 35.7234 19.4062 35.8598 19.4062C35.9401 19.4062 36.0215 19.3832 36.0934 19.3354L36.6199 18.9844C36.8137 18.855 36.8661 18.5934 36.7369 18.3994C36.6073 18.2053 36.3453 18.153 36.1519 18.2823Z" fill="black"/>
<path d="M25.3125 31.8178V48.9375C25.3125 49.4026 24.9341 49.7813 24.4688 49.7813H5.0625C4.59717 49.7813 4.21875 49.4026 4.21875 48.9375V31.2188C4.21875 30.7536 4.59717 30.375 5.0625 30.375H23.1582L24.0421 29.5313H5.0625C4.13429 29.5313 3.375 30.2905 3.375 31.2188V48.9375C3.375 49.8657 4.13429 50.625 5.0625 50.625H24.4688C25.397 50.625 26.1563 49.8657 26.1563 48.9375V31.2188C26.1563 31.1545 26.1443 31.0931 26.1371 31.0305L25.3125 31.8178Z" fill="black"/>
<path d="M27.8438 25.9025L28.6875 25.097V18.5625H27.8438V25.9025Z" fill="black"/>
<path d="M48.9375 6.75H29.5313C28.603 6.75 27.8438 7.50929 27.8438 8.4375V16.0312H28.6875V8.4375C28.6875 7.97238 29.0659 7.59375 29.5313 7.59375H48.9375C49.4028 7.59375 49.7813 7.97238 49.7813 8.4375V26.1563C49.7813 26.6214 49.4028 27 48.9375 27H30.3598L29.481 27.8388C29.4981 27.8392 29.5142 27.8438 29.5313 27.8438H48.9375C49.8657 27.8438 50.625 27.0845 50.625 26.1563V8.4375C50.625 7.50929 49.8657 6.75 48.9375 6.75Z" fill="black"/>
<path d="M31.4661 23.611C31.2976 23.7721 31.2915 24.039 31.4523 24.2076C31.5352 24.2945 31.6462 24.3381 31.7574 24.3381C31.8623 24.3381 31.9671 24.2994 32.0487 24.2216L32.3538 23.9303C32.5223 23.7692 32.5285 23.5022 32.3676 23.3337C32.2067 23.1648 31.9391 23.1595 31.7712 23.3197L31.4661 23.611Z" fill="black"/>
<path d="M22.9465 31.7436L22.3379 32.3245C22.1694 32.4856 22.1633 32.7526 22.3241 32.9211C22.407 33.008 22.518 33.0517 22.6292 33.0517C22.7339 33.0517 22.8389 33.0129 22.9205 32.9351L23.529 32.3542C23.6975 32.1931 23.7037 31.9262 23.5428 31.7576C23.3819 31.5891 23.1144 31.5825 22.9465 31.7436Z" fill="black"/>
<path d="M24.772 30.0009L24.1635 30.5818C23.995 30.7429 23.9888 31.0099 24.1497 31.1784C24.2325 31.2653 24.3435 31.309 24.4547 31.309C24.5594 31.309 24.6645 31.2703 24.746 31.1924L25.3545 30.6115C25.523 30.4504 25.5292 30.1834 25.3683 30.0149C25.2075 29.846 24.9401 29.8398 24.772 30.0009Z" fill="black"/>
<path d="M29.6266 25.9503C29.7094 26.0372 29.8204 26.0809 29.9317 26.0809C30.0364 26.0809 30.1414 26.0421 30.223 25.9643L30.8315 25.3834C31 25.2223 31.0062 24.9553 30.8453 24.7868C30.6844 24.6175 30.4168 24.6121 30.2489 24.7728L29.6404 25.3537C29.4719 25.5148 29.4657 25.7818 29.6266 25.9503Z" fill="black"/>
<path d="M28.3972 27.707L29.0058 27.1261C29.1743 26.965 29.1805 26.698 29.0196 26.5295C28.8587 26.3606 28.5913 26.3548 28.4232 26.5155L27.8147 27.0964C27.6462 27.2575 27.64 27.5245 27.8009 27.693C27.8837 27.7799 27.9947 27.8235 28.106 27.8235C28.2106 27.8235 28.3157 27.7849 28.3972 27.707Z" fill="black"/>
<path d="M17.4436 38.1628L18.052 37.5819C18.2206 37.4208 18.2267 37.1539 18.0659 36.9853C17.905 36.8164 17.6374 36.8107 17.4695 36.9713L16.861 37.5522C16.6925 37.7133 16.6863 37.9803 16.8472 38.1488C16.93 38.2357 17.041 38.2794 17.1523 38.2794C17.2569 38.2794 17.362 38.2407 17.4436 38.1628Z" fill="black"/>
<path d="M26.5977 28.2582L25.9892 28.8391C25.8207 29.0002 25.8145 29.2672 25.9754 29.4357C26.0582 29.5226 26.1692 29.5663 26.2805 29.5663C26.3851 29.5663 26.4902 29.5275 26.5718 29.4497L27.1802 28.8688C27.3488 28.7077 27.3549 28.4407 27.1941 28.2722C27.0332 28.1033 26.7656 28.0971 26.5977 28.2582Z" fill="black"/>
<path d="M19.2693 36.4201L19.8778 35.8392C20.0463 35.6781 20.0524 35.4111 19.8916 35.2426C19.7305 35.0733 19.4635 35.0679 19.2952 35.2286L18.6867 35.8095C18.5182 35.9706 18.512 36.2376 18.6729 36.4061C18.7557 36.493 18.8668 36.5367 18.978 36.5367C19.0826 36.5367 19.1877 36.498 19.2693 36.4201Z" fill="black"/>
<path d="M15.618 39.9055L16.2265 39.3246C16.395 39.1635 16.4012 38.8965 16.2403 38.728C16.0796 38.5591 15.8123 38.5533 15.644 38.714L15.0355 39.295C14.867 39.456 14.8608 39.723 15.0217 39.8915C15.1045 39.9784 15.2155 40.0221 15.3268 40.0221C15.4314 40.0221 15.5364 39.9834 15.618 39.9055Z" fill="black"/>
<path d="M21.0946 34.6774L21.7033 34.0969C21.872 33.9362 21.8784 33.6693 21.7175 33.5003C21.5566 33.331 21.289 33.3256 21.1211 33.4863L20.5124 34.0668C20.3437 34.2275 20.3373 34.4944 20.4982 34.6634C20.581 34.7503 20.6922 34.794 20.8035 34.794C20.9082 34.794 21.013 34.7552 21.0946 34.6774Z" fill="black"/>
<path d="M16.9411 40.7014C16.8983 40.4728 16.6789 40.3237 16.449 40.364L15.8269 40.4802C15.5979 40.5231 15.4468 40.7435 15.4897 40.9725C15.5276 41.1753 15.7048 41.317 15.9039 41.317C15.9295 41.317 15.9557 41.3145 15.9818 41.31L16.6039 41.1938C16.833 41.151 16.984 40.9305 16.9411 40.7014Z" fill="black"/>
<path d="M13.2198 40.6368L13.0874 41.2556C13.0579 41.3936 13.0993 41.537 13.1978 41.6383C13.2779 41.7203 13.3873 41.7656 13.5 41.7656C13.5257 41.7656 13.5517 41.7631 13.5775 41.7586L14.1996 41.6424C14.4286 41.5996 14.5796 41.3792 14.5368 41.1501C14.5248 41.0862 14.4968 41.0306 14.4607 40.9812C14.56 40.8218 14.5503 40.6129 14.4146 40.4708C14.277 40.3261 14.0644 40.3088 13.8996 40.4052C13.8486 40.3624 13.7905 40.3274 13.7208 40.3126C13.4922 40.2627 13.2689 40.409 13.2198 40.6368Z" fill="black"/>
<path d="M13.9046 39.4544C13.9344 39.461 13.9641 39.4638 13.9933 39.4638C14.188 39.4638 14.3631 39.3283 14.4056 39.1301L14.538 38.5113C14.5866 38.2835 14.4416 38.0594 14.2138 38.0108C13.9857 37.9605 13.7616 38.1072 13.7128 38.335L13.5803 38.9538C13.5317 39.1816 13.6767 39.4058 13.9046 39.4544Z" fill="black"/>
<path d="M35.4378 39.8209C35.607 39.6606 35.6141 39.3936 35.4539 39.2245C35.2936 39.0553 35.0266 39.0482 34.8575 39.2084C34.6883 39.3687 34.6812 39.6357 34.8414 39.8048C35.0017 39.9739 35.2687 39.9811 35.4378 39.8209Z" fill="black"/>
<path d="M40.7344 43.3847C40.57 43.2195 40.3026 43.2183 40.1379 43.3831C39.9727 43.5475 39.9718 43.8144 40.1362 43.9796L43.6847 47.5475C43.767 47.6303 43.8754 47.6719 43.9838 47.6719C44.0913 47.6719 44.199 47.6311 44.2812 47.5491C44.4464 47.3847 44.4472 47.1177 44.2829 46.9525L40.7344 43.3847Z" fill="black"/>
<path d="M40.1663 40.2025C40.0019 40.0373 39.7345 40.0361 39.5697 40.2009C39.4045 40.3653 39.4037 40.6323 39.5681 40.7975L45.0525 46.3115C45.1348 46.3943 45.2432 46.4359 45.3516 46.4359C45.4591 46.4359 45.5668 46.3951 45.649 46.3131C45.8142 46.1487 45.815 45.8818 45.6507 45.7166L40.1663 40.2025Z" fill="black"/>
<path d="M13.0781 17.2973C13.0781 18.2288 13.8337 18.9844 14.7656 18.9844C15.6975 18.9844 16.4531 18.2288 16.4531 17.2973C16.4531 16.365 15.6975 15.6094 14.7656 15.6094C13.8337 15.6094 13.0781 16.365 13.0781 17.2973ZM15.6094 17.2973C15.6094 17.7624 15.231 18.1406 14.7656 18.1406C14.3003 18.1406 13.9219 17.7624 13.9219 17.2973C13.9219 16.8318 14.3003 16.4531 14.7656 16.4531C15.231 16.4531 15.6094 16.8318 15.6094 17.2973Z" fill="black"/>
<path d="M43.875 16.8754C43.875 15.9431 43.1194 15.1875 42.1875 15.1875C41.2556 15.1875 40.5 15.9431 40.5 16.8754C40.5 17.8069 41.2556 18.5625 42.1875 18.5625C43.1194 18.5625 43.875 17.8069 43.875 16.8754ZM41.3438 16.8754C41.3438 16.4099 41.7222 16.0312 42.1875 16.0312C42.6528 16.0312 43.0312 16.4099 43.0312 16.8754C43.0312 17.3405 42.6528 17.7188 42.1875 17.7188C41.7222 17.7188 41.3438 17.3405 41.3438 16.8754Z" fill="black"/>
<path d="M48.0938 16.8754C48.0938 15.9431 47.3382 15.1875 46.4063 15.1875C45.4743 15.1875 44.7188 15.9431 44.7188 16.8754C44.7188 17.8069 45.4743 18.5625 46.4063 18.5625C47.3382 18.5625 48.0938 17.8069 48.0938 16.8754ZM45.5625 16.8754C45.5625 16.4099 45.9409 16.0312 46.4063 16.0312C46.8716 16.0312 47.25 16.4099 47.25 16.8754C47.25 17.3405 46.8716 17.7188 46.4063 17.7188C45.9409 17.7188 45.5625 17.3405 45.5625 16.8754Z" fill="black"/>
<path d="M8.85938 45.141C8.85938 46.0725 9.61495 46.8281 10.5469 46.8281C11.4788 46.8281 12.2344 46.0725 12.2344 45.141C12.2344 44.2087 11.4788 43.4531 10.5469 43.4531C9.61495 43.4531 8.85938 44.2087 8.85938 45.141ZM11.3906 45.141C11.3906 45.6062 11.0122 45.9844 10.5469 45.9844C10.0815 45.9844 9.70312 45.6062 9.70312 45.141C9.70312 44.6755 10.0815 44.2969 10.5469 44.2969C11.0122 44.2969 11.3906 44.6755 11.3906 45.141Z" fill="black"/>
<path d="M14.7656 46.8281C15.6975 46.8281 16.4531 46.0725 16.4531 45.141C16.4531 44.2087 15.6975 43.4531 14.7656 43.4531C13.8337 43.4531 13.0781 44.2087 13.0781 45.141C13.0781 46.0725 13.8337 46.8281 14.7656 46.8281ZM14.7656 44.2969C15.231 44.2969 15.6094 44.6755 15.6094 45.141C15.6094 45.6062 15.231 45.9844 14.7656 45.9844C14.3003 45.9844 13.9219 45.6062 13.9219 45.141C13.9219 44.6755 14.3003 44.2969 14.7656 44.2969Z" fill="black"/>
<path d="M18.9844 46.8281C19.9163 46.8281 20.6719 46.0725 20.6719 45.141C20.6719 44.2087 19.9163 43.4531 18.9844 43.4531C18.0525 43.4531 17.2969 44.2087 17.2969 45.141C17.2969 46.0725 18.0525 46.8281 18.9844 46.8281ZM18.9844 44.2969C19.4497 44.2969 19.8281 44.6755 19.8281 45.141C19.8281 45.6062 19.4497 45.9844 18.9844 45.9844C18.519 45.9844 18.1406 45.6062 18.1406 45.141C18.1406 44.6755 18.519 44.2969 18.9844 44.2969Z" fill="black"/>
</svg>
