<svg width="16" height="12" viewBox="0 0 16 12" fill="none" xmlns="http://www.w3.org/2000/svg">
<path d="M15.4336 0.441406C15.6445 0.675781 15.75 0.945312 15.75 1.25C15.75 1.55469 15.6445 1.82422 15.4336 2.05859L6.43359 11.0586C6.19922 11.2695 5.92969 11.375 5.625 11.375C5.32031 11.375 5.05078 11.2695 4.81641 11.0586L0.316406 6.55859C0.105469 6.32422 0 6.05469 0 5.75C0 5.44531 0.105469 5.17578 0.316406 4.94141C0.550781 4.73047 0.820312 4.625 1.125 4.625C1.42969 4.625 1.69922 4.73047 1.93359 4.94141L5.58984 8.66797L13.8164 0.441406C14.0508 0.230469 14.3203 0.125 14.625 0.125C14.9297 0.125 15.1992 0.230469 15.4336 0.441406Z" fill="#1F242E"/>
</svg>
