<svg width="89" height="98" viewBox="0 0 89 98" fill="none" xmlns="http://www.w3.org/2000/svg">
<path d="M59.8829 26.1092H53.7542C53.7118 26.1083 53.6695 26.1083 53.6272 26.1092C51.9699 26.1442 50.6548 27.5137 50.6898 29.1683V33.7568H53.7542V29.1683H59.8829V36.8159H53.7542C53.7118 36.8149 53.6695 36.8149 53.6272 36.8159C51.9699 36.8509 50.6548 38.2204 50.6898 39.8749V44.4635C50.6889 44.5058 50.6889 44.548 50.6898 44.5903C50.7249 46.2446 52.0969 47.5575 53.7542 47.5226H62.9472V44.4635H53.7542V39.8749H59.8829C59.9252 39.8759 59.9675 39.8759 60.0098 39.8749C61.6673 39.84 62.9822 38.4703 62.9472 36.8159V29.1683C62.9482 29.126 62.9482 29.0838 62.9472 29.0415C62.9121 27.3871 61.5403 26.0742 59.8829 26.1092Z" fill="#D023B9"/>
<path d="M76.741 26.1085H73.6766V36.8152H70.6123V26.1085H67.5479V38.3447C67.5479 39.1894 68.234 39.8742 69.0801 39.8742H73.6766V47.5218H76.741V39.8742H79.8053V36.8152H76.741V26.1085Z" fill="#D023B9"/>
<path d="M86.7274 30.4218C78.9788 7.14323 53.7936 -5.45718 30.4745 2.2782C7.1556 10.0134 -5.46663 35.1553 2.28214 58.4339C5.76975 68.9111 12.7904 77.2235 21.5821 82.4939V82.7048H21.9376C32.619 88.9746 45.8525 90.7845 58.5351 86.5775L69.5284 97.5518C69.8157 97.8386 70.2052 97.9998 70.6116 98C70.8131 98.0006 71.0125 97.9612 71.1985 97.8837C71.7709 97.6469 72.144 97.089 72.1438 96.4705V79.2343C86.7967 67.6389 92.6238 48.1354 86.7274 30.4218ZM16.9856 75.1783V55.5343L18.1041 53.2951L27.3297 49.308L32.3073 54.277V59.7619H35.3717V54.277L40.3488 49.3086L49.5734 53.2951L50.6934 55.5343V85.3124C49.1626 85.5413 47.6281 85.6823 46.0969 85.7378V68.939H43.0326V85.7355C36.5869 85.4894 30.2837 83.7351 24.6465 80.6273V68.939H21.5821V78.759C19.9772 77.682 18.4402 76.4876 16.9856 75.1783ZM41.5004 28.9506C40.7343 28.7495 39.9682 28.3669 39.9682 27.6419C39.9682 26.7972 39.2822 26.1124 38.436 26.1124H29.243C28.3969 26.1124 27.7108 26.7972 27.7108 27.6419C27.7108 28.3669 26.9447 28.7493 26.1787 28.9506V22.2366C28.425 20.6875 31.1109 19.9014 33.8395 19.9943C36.5681 19.9014 39.254 20.6875 41.5004 22.2366V28.9506ZM26.1787 32.0867C28.0209 31.9116 29.6477 30.8132 30.4963 29.1714H37.1827C38.0313 30.8132 39.6581 31.9116 41.5004 32.0867V33.76C41.5004 37.9937 39.4932 42.9371 33.8395 42.9371C28.1858 42.9371 26.1787 37.9937 26.1787 33.76V32.0867ZM33.8395 45.9962C35.1882 45.9962 36.4492 45.7648 37.5999 45.3335L38.185 47.1433L33.8397 51.4811L29.4931 47.142L30.0773 45.3328C31.2283 45.7647 32.4901 45.9962 33.8395 45.9962ZM69.6816 77.2734C69.3024 77.5625 69.0799 78.0116 69.0795 78.4879V92.7782L60.0259 83.7402C59.7386 83.4534 59.349 83.2921 58.9426 83.2921C58.7678 83.2915 58.5941 83.321 58.4293 83.3793C56.8859 83.9278 55.3261 84.3786 53.7578 84.736V55.1733C53.7604 54.9366 53.708 54.7026 53.6045 54.4896L52.0724 51.4306C51.9092 51.1084 51.6382 50.8536 51.3063 50.7102L41.1327 46.3174L40.3141 43.7833C42.9644 41.6447 44.5647 38.0972 44.5647 33.76V21.5238C44.5647 21.1181 44.4031 20.7292 44.1158 20.4424C41.2539 18.0254 37.5847 16.7731 33.8395 16.9352C30.0943 16.7731 26.4253 18.0254 23.5632 20.4424C23.276 20.7292 23.1143 21.1181 23.1143 21.5238V33.76C23.1143 38.0958 24.7137 41.6426 27.3626 43.7814L26.5433 46.3174L16.3804 50.7102C16.0485 50.8536 15.7775 51.1084 15.6143 51.4306L14.0822 54.4896C13.9761 54.702 13.9211 54.9361 13.9213 55.1733V72.1132C13.206 71.318 12.5169 70.4913 11.8575 69.6321C-1.99645 51.5818 1.43064 25.7378 19.5122 11.9079C37.5937 -1.92206 63.4824 1.4991 77.3363 19.5492C91.1902 37.5993 87.7632 63.4435 69.6816 77.2734Z" fill="#D023B9"/>
</svg>
