<svg width="50" height="63" viewBox="0 0 50 63" fill="none" xmlns="http://www.w3.org/2000/svg">
<path d="M49.9996 19.7523V56.0639C49.9996 59.4452 47.2586 62.1861 43.8774 62.1861H6.12222C2.74098 62.1861 4.59242e-09 59.4452 4.59242e-09 56.0639V6.12223C-0.00012955 2.74098 2.74085 0 6.12222 0H31.4097L49.9996 19.7523Z" fill="#0263D1"/>
<path d="M49.9998 19.7523H35.4914C33.2373 19.7523 31.4099 17.9249 31.4099 15.6708V0L49.9998 19.7523Z" fill="#4E92DF"/>
<path d="M31.4097 0V15.6708C31.4097 17.9249 33.237 19.7523 35.4912 19.7523H49.9994" fill="#4E92DF"/>
<path d="M8.81201 47.5916V35.4028H12.738C13.8142 35.4028 14.7828 35.646 15.6437 36.1362C16.5007 36.6225 17.1742 37.3121 17.6566 38.205C18.1389 39.0938 18.3819 40.0902 18.386 41.1943V41.7563C18.386 42.8723 18.1508 43.8728 17.6804 44.7577C17.2101 45.6426 16.5445 46.3322 15.6875 46.8343C14.8305 47.3326 13.874 47.5837 12.8216 47.5917L8.81201 47.5916ZM11.7495 37.6707V45.3315H12.7699C13.6149 45.3315 14.2606 45.0326 14.711 44.4307C15.1654 43.8328 15.3926 42.94 15.3926 41.7562V41.2301C15.3926 40.0502 15.1654 39.1654 14.711 38.5675C14.2606 37.9696 13.6029 37.6707 12.738 37.6707H11.7495Z" fill="white"/>
<path d="M30.2121 41.7482C30.2121 42.9359 29.9929 43.9882 29.5505 44.905C29.1121 45.8177 28.4862 46.5233 27.6731 47.0176C26.86 47.5118 25.9353 47.7589 24.899 47.7589C23.8587 47.7589 22.9379 47.5197 22.1367 47.0414C21.3316 46.5671 20.7058 45.8815 20.2554 44.9966C19.8089 44.1078 19.5698 43.0914 19.5498 41.9395V41.2539C19.5498 40.0581 19.769 39.0059 20.2074 38.0932C20.6458 37.1805 21.2716 36.4789 22.0888 35.9807C22.9059 35.4824 23.8386 35.2354 24.8829 35.2354C25.9152 35.2354 26.8359 35.4825 27.6451 35.9728C28.4543 36.463 29.0801 37.1645 29.5304 38.0694C29.9809 38.9782 30.208 40.0145 30.212 41.1863V41.7482H30.2121ZM27.2267 41.238C27.2267 40.0263 27.0234 39.1055 26.6169 38.4798C26.2143 37.85 25.6364 37.5391 24.883 37.5391C23.4083 37.5391 22.631 38.6432 22.5473 40.8513L22.5393 41.7481C22.5393 42.9438 22.7346 43.8606 23.1332 44.5023C23.5278 45.1439 24.1176 45.4629 24.8988 45.4629C25.6402 45.4629 26.2102 45.148 26.6127 44.5182C27.0153 43.8884 27.2185 42.9796 27.2266 41.7999V41.238H27.2267Z" fill="white"/>
<path d="M41.5919 43.4624C41.552 44.3114 41.3249 45.0607 40.9063 45.7104C40.4878 46.3602 39.8978 46.8663 39.1445 47.221C38.3871 47.5798 37.5222 47.7591 36.5537 47.7591C34.9513 47.7591 33.6878 47.237 32.767 46.1926C31.8463 45.1483 31.3879 43.6776 31.3879 41.7724V41.1705C31.3879 39.9747 31.5952 38.9305 32.0097 38.0376C32.4281 37.1408 33.026 36.4472 33.8072 35.9609C34.5885 35.4707 35.4933 35.2275 36.5176 35.2275C37.9964 35.2275 39.1841 35.6181 40.0849 36.3953C40.9817 37.1725 41.4919 38.2447 41.6155 39.6119H38.6859C38.6619 38.8706 38.4786 38.3405 38.1239 38.0136C37.7732 37.6908 37.239 37.5313 36.5175 37.5313C35.7881 37.5313 35.25 37.8023 34.9112 38.3484C34.5724 38.8985 34.393 39.7713 34.377 40.9711V41.832C34.377 43.1314 34.5404 44.06 34.8632 44.618C35.1901 45.176 35.7521 45.4551 36.5533 45.4551C37.2268 45.4551 37.741 45.2956 38.0998 44.9808C38.4585 44.662 38.6458 44.1557 38.6698 43.4622H41.5919V43.4624Z" fill="white"/>
</svg>
