<svg width="120" height="98" viewBox="0 0 120 98" fill="none" xmlns="http://www.w3.org/2000/svg">
<path d="M105.838 0H13.8639C6.1955 0 0 6.21888 0 13.8639V71.0496C0 78.6946 6.1955 84.8901 13.8639 84.8901H43.766L54.7542 95.8783C57.5831 98.7072 62.1654 98.7072 64.9943 95.8783L75.9826 84.8901H105.861C113.506 84.8901 119.725 78.6946 119.725 71.0496V13.8639C119.702 6.21888 113.506 0 105.838 0Z" fill="url(#paint0_linear_1_397)"/>
<path d="M53.9075 27.9937C52.8788 28.9757 51.9203 29.981 50.8916 30.9395C50.611 31.1733 50.2837 31.3136 49.9097 31.337C47.8289 31.3837 45.7481 31.337 43.6674 31.3603C41.0957 31.3837 39.4825 33.0203 39.4825 35.592V58.1764C39.4825 60.9117 41.0957 62.5483 43.8544 62.5483C50.1434 62.5717 56.4325 62.5717 62.7215 62.5483C64.171 62.5483 65.6439 62.6184 67.0934 62.4781C69.3378 62.2677 70.6704 60.6779 70.6704 58.4101C70.6704 56.3294 70.6704 54.2486 70.6938 52.1679C70.6938 51.8873 70.7873 51.6302 70.951 51.3964C72.8213 49.4793 74.715 47.6089 76.6088 45.7152C76.7023 45.6217 76.8192 45.5516 76.9361 45.4814V49.8767C76.9361 53.0095 77.0062 56.119 76.8893 59.2284C76.7023 64.4186 72.5174 68.5567 67.3272 68.7204C62.9787 68.8373 58.6301 68.7438 54.2816 68.7672H43.8077C37.6823 68.7672 33.287 64.4186 33.2636 58.2699C33.2402 50.695 33.2402 43.1201 33.2636 35.5452C33.287 30.2615 36.7939 25.9597 41.7971 25.2584C43.7142 25.0012 45.7014 25.0947 47.6652 25.0947C50.3772 25.0713 53.0659 25.0947 55.7545 25.0947H57.0637C55.9883 26.0766 54.9128 27.0118 53.9075 27.9937Z" fill="white"/>
<path d="M86.0578 44.0995L86.8059 17.1199C86.8761 16.0444 86.0578 15.1326 84.9823 15.0625C84.9356 15.0625 84.9122 15.0625 84.8654 15.0625L57.9325 15.8808C56.8571 15.8808 55.9921 16.7458 55.9921 17.8213C55.9921 18.3356 56.2025 18.8499 56.5765 19.2006L62.9123 25.5598C62.7253 25.6767 62.5616 25.7936 62.398 25.9339C58.8677 29.4641 55.3374 32.9944 51.8072 36.5247C49.0484 39.2834 49.025 42.8838 51.7838 45.6659C53.3268 47.2324 54.8932 48.7754 56.4363 50.3418C58.9612 52.8434 62.6785 52.8434 65.2269 50.3418C68.1259 47.4428 71.0015 44.5437 73.9006 41.6447C74.7422 40.8031 75.5839 39.938 76.4489 39.0496L82.7613 45.362C83.5328 46.1101 84.7485 46.1102 85.5201 45.3386C85.824 45.0113 86.0344 44.5671 86.0578 44.0995Z" fill="white"/>
<defs>
<linearGradient id="paint0_linear_1_397" x1="59.8509" y1="0.703716" x2="59.8509" y2="92.9115" gradientUnits="userSpaceOnUse">
<stop stop-color="#FDAE3E"/>
<stop offset="1" stop-color="#FF0749"/>
</linearGradient>
</defs>
</svg>
