<svg width="88" height="98" viewBox="0 0 88 98" fill="none" xmlns="http://www.w3.org/2000/svg">
<path d="M80.3281 0H33.3437C32.5068 0 31.8281 0.685623 31.8281 1.53125V16.8437C31.8281 17.6894 32.5068 18.375 33.3437 18.375H86.3906C87.2283 18.375 87.9062 17.6894 87.9062 16.8437V7.65624C87.9062 3.43484 84.5064 0 80.3281 0Z" fill="#45A9F4"/>
<path d="M48.2839 16.0557L41.8395 5.20385C39.9331 1.99406 36.4468 0 32.7421 0H7.57812C3.39979 0 0 3.43484 0 7.65624V16.8437C0 17.6894 0.678627 18.375 1.51562 18.375H46.9843C47.5305 18.375 48.0337 18.0782 48.3031 17.5981C48.5725 17.1181 48.5651 16.529 48.2839 16.0557Z" fill="#64C4FF"/>
<path d="M87.9062 15.3125H0V75.0312C0 79.2596 3.39284 82.6874 7.57812 82.6874H80.3281C84.5134 82.6874 87.9062 79.2596 87.9062 75.0312V15.3125Z" fill="#D9ECFF"/>
<path d="M12.125 26.0312H15.1562C15.9932 26.0312 16.6719 25.3456 16.6719 24.5C16.6719 23.6544 15.9932 22.9688 15.1562 22.9688H12.125C9.61771 22.9688 7.57812 25.0294 7.57812 27.5625C7.57812 30.0956 9.61771 32.1562 12.125 32.1562C12.9605 32.1562 13.6406 32.8434 13.6406 33.6875C13.6406 34.5316 12.9605 35.2187 12.125 35.2187H9.09375C8.25675 35.2187 7.57812 35.9044 7.57812 36.75C7.57812 37.5956 8.25675 38.2812 9.09375 38.2812H12.125C14.6323 38.2812 16.6719 36.2206 16.6719 33.6875C16.6719 31.1544 14.6323 29.0937 12.125 29.0937C11.2895 29.0937 10.6094 28.4066 10.6094 27.5625C10.6094 26.7184 11.2895 26.0312 12.125 26.0312Z" fill="#FFCD7D"/>
<path d="M27.2812 26.0312C28.1182 26.0312 28.7969 25.3456 28.7969 24.5C28.7969 23.6544 28.1182 22.9688 27.2812 22.9688H21.2187C20.3818 22.9688 19.7031 23.6544 19.7031 24.5V36.75C19.7031 37.5956 20.3818 38.2812 21.2187 38.2812H27.2812C28.1182 38.2812 28.7969 37.5956 28.7969 36.75C28.7969 35.9044 28.1182 35.2187 27.2812 35.2187H22.7344V32.1562H27.2812C28.1182 32.1562 28.7969 31.4706 28.7969 30.625C28.7969 29.7794 28.1182 29.0937 27.2812 29.0937H22.7344V26.0312H27.2812Z" fill="#FFCD7D"/>
<path d="M37.8906 22.9688C34.5478 22.9688 31.8281 25.7165 31.8281 29.0937V32.1562C31.8281 35.5335 34.5478 38.2812 37.8906 38.2812C41.2334 38.2812 43.9531 35.5335 43.9531 32.1562V29.0937C43.9531 25.7165 41.2334 22.9688 37.8906 22.9688ZM40.9219 32.1562C40.9219 33.8453 39.5624 35.2187 37.8906 35.2187C36.2188 35.2187 34.8594 33.8453 34.8594 32.1562V29.0937C34.8594 27.4047 36.2188 26.0312 37.8906 26.0312C39.5624 26.0312 40.9219 27.4047 40.9219 29.0937V32.1562Z" fill="#FFCD7D"/>
<path d="M79.442 86.073L63.112 72.324C62.5081 71.817 61.623 71.8567 61.0695 72.4174L56.5226 77.0112C55.9676 77.5712 55.9276 78.4654 56.4294 79.074L70.0389 95.5738C71.3118 97.1155 73.1812 98 75.1675 98C78.8485 98 81.8442 94.9742 81.8442 91.2545C81.8442 89.2469 80.968 87.3583 79.442 86.073Z" fill="#45A9F4"/>
<path d="M43.9531 32.1562C28.9101 32.1562 16.6719 44.5206 16.6719 59.7187C16.6719 74.9168 28.9101 87.2812 43.9531 87.2812C58.9954 87.2812 71.2343 74.9168 71.2343 59.7187C71.2343 44.5206 58.9954 32.1562 43.9531 32.1562Z" fill="#64C4FF"/>
<path d="M43.9531 39.8125C33.0884 39.8125 24.25 48.742 24.25 59.7187C24.25 70.6954 33.0884 79.625 43.9531 79.625C54.8171 79.625 63.6562 70.6954 63.6562 59.7187C63.6562 48.742 54.8171 39.8125 43.9531 39.8125Z" fill="#45A9F4"/>
<path d="M7.57812 9.1875C8.41518 9.1875 9.09375 8.50193 9.09375 7.65625C9.09375 6.81056 8.41518 6.125 7.57812 6.125C6.74107 6.125 6.0625 6.81056 6.0625 7.65625C6.0625 8.50193 6.74107 9.1875 7.57812 9.1875Z" fill="#45A9F4"/>
<path d="M13.6406 9.1875C14.4777 9.1875 15.1562 8.50193 15.1562 7.65625C15.1562 6.81056 14.4777 6.125 13.6406 6.125C12.8036 6.125 12.125 6.81056 12.125 7.65625C12.125 8.50193 12.8036 9.1875 13.6406 9.1875Z" fill="#45A9F4"/>
<path d="M19.7031 9.1875C20.5402 9.1875 21.2187 8.50193 21.2187 7.65625C21.2187 6.81056 20.5402 6.125 19.7031 6.125C18.8661 6.125 18.1875 6.81056 18.1875 7.65625C18.1875 8.50193 18.8661 9.1875 19.7031 9.1875Z" fill="#45A9F4"/>
<path d="M77.2968 33.6875H69.7187C68.881 33.6875 68.2031 34.3731 68.2031 35.2187C68.2031 36.0644 68.881 36.75 69.7187 36.75H73.638L51.5312 59.0847L45.0247 52.5111C44.4327 51.9129 43.4736 51.9129 42.8815 52.5111L33.7878 61.6986C33.1957 62.2967 33.1957 63.2657 33.7878 63.8639C34.0838 64.1629 34.4716 64.3125 34.8594 64.3125C35.2472 64.3125 35.6349 64.1629 35.931 63.8639L43.9531 55.759L50.4596 62.3326C51.0517 62.9308 52.0108 62.9308 52.6028 62.3326L75.7812 38.9153V42.875C75.7812 43.7206 76.4591 44.4062 77.2968 44.4062C78.1346 44.4062 78.8125 43.7206 78.8125 42.875V35.2187C78.8125 34.3731 78.1346 33.6875 77.2968 33.6875Z" fill="#FF7186"/>
</svg>
