<svg width="98" height="98" viewBox="0 0 98 98" fill="none" xmlns="http://www.w3.org/2000/svg">
<path d="M49 98C76.062 98 98 76.062 98 49C98 21.938 76.062 0 49 0C21.938 0 0 21.938 0 49C0 76.062 21.938 98 49 98Z" fill="url(#paint0_linear_1_444)" fill-opacity="0.2"/>
<path d="M28.5984 26.8981H34.0119C34.7161 28.8729 36.5856 30.2985 38.7992 30.2985C41.0128 30.2985 42.8823 28.8729 43.5865 26.8981H69.4016C70.3414 26.8981 71.1017 26.1377 71.1017 25.1981C71.1017 24.2583 70.3412 23.498 69.4016 23.498H43.5865C42.8823 21.5233 41.0128 20.0977 38.7992 20.0977C36.5856 20.0977 34.7161 21.5233 34.0119 23.498H28.5984C27.6586 23.498 26.8983 24.2584 26.8983 25.1981C26.8981 26.1379 27.6586 26.8981 28.5984 26.8981ZM69.4016 33.6988H63.9881C63.2839 31.7241 61.4144 30.2985 59.2008 30.2985C56.9872 30.2985 55.1177 31.7241 54.4135 33.6988H28.5984C27.6586 33.6988 26.8983 34.4592 26.8983 35.3989C26.8983 36.3385 27.6588 37.0989 28.5984 37.0989H54.4135C55.1177 39.0737 56.9872 40.4993 59.2008 40.4993C61.4144 40.4993 63.2839 39.0737 63.9881 37.0989H69.4016C70.3414 37.0989 71.1017 36.3385 71.1017 35.3989C71.1017 34.4592 70.3414 33.6988 69.4016 33.6988ZM69.4016 43.8996H47.2999C47.2999 42.0215 45.7777 40.4993 43.8996 40.4993C42.0215 40.4993 40.4993 42.0215 40.4993 43.8996H28.5982C27.6584 43.8996 26.8981 44.6601 26.8981 45.5997C26.8981 46.5395 27.6586 47.2997 28.5982 47.2997H40.4993V66.0013C40.4993 66.9411 39.7388 67.7013 38.7992 67.7013C37.8594 67.7013 37.0991 66.9409 37.0991 66.0013V58.4968L32.7691 62.8268C31.0507 64.5452 30.7751 67.2498 32.1166 69.2588L37.3864 77.1469C37.7019 77.6185 38.2315 77.9023 38.7994 77.9023H55.8009C56.7407 77.9023 57.5009 77.1419 57.5009 76.2023V62.6011C57.5009 59.7886 55.213 57.5007 52.4005 57.5007H47.3001V47.2999H69.402C70.3418 47.2999 71.1021 46.5395 71.1021 45.5999C71.1019 44.6601 70.3414 43.8996 69.4016 43.8996Z" fill="url(#paint1_linear_1_444)"/>
<defs>
<linearGradient id="paint0_linear_1_444" x1="0" y1="49" x2="98" y2="49" gradientUnits="userSpaceOnUse">
<stop stop-color="#87AB42"/>
<stop offset="0.3" stop-color="#87AB42"/>
<stop offset="1" stop-color="#FF7029"/>
</linearGradient>
<linearGradient id="paint1_linear_1_444" x1="0" y1="49" x2="98" y2="49" gradientUnits="userSpaceOnUse">
<stop stop-color="#87AB42"/>
<stop offset="0.3" stop-color="#87AB42"/>
<stop offset="1" stop-color="#FF7029"/>
</linearGradient>
</defs>
</svg>
