<svg width="67" height="67" viewBox="0 0 67 67" fill="none" xmlns="http://www.w3.org/2000/svg">
<g clip-path="url(#clip0_153_20)">
<path d="M5.4519 4.98096H61.5498V62.0205H5.4519V4.98096Z" fill="white"/>
<path d="M8.80657 0.698242H2.09374C1.32285 0.698242 0.697998 1.32323 0.697998 2.09399V8.80694C0.697998 9.57784 1.32298 10.2027 2.09374 10.2027H8.80657C9.57746 10.2027 10.2023 9.5777 10.2023 8.80694V2.09412C10.2024 1.3231 9.57759 0.698242 8.80657 0.698242Z" fill="#FF2A47"/>
<path d="M64.9062 0.698242H58.1934C57.4223 0.698242 56.7976 1.32323 56.7976 2.09399V8.80694C56.7976 9.57784 57.4226 10.2027 58.1934 10.2027H64.9062C65.6771 10.2027 66.3019 9.5777 66.3019 8.80694V2.09412C66.3021 1.3231 65.6772 0.698242 64.9062 0.698242Z" fill="#FF2A47"/>
<path d="M8.80657 56.7979H2.09374C1.32285 56.7979 0.697998 57.4228 0.697998 58.1936V64.9067C0.697998 65.6776 1.32298 66.3024 2.09374 66.3024H8.80657C9.57746 66.3024 10.2023 65.6774 10.2023 64.9067V58.1937C10.2024 57.4228 9.57759 56.7979 8.80657 56.7979Z" fill="#FF2A47"/>
<path d="M64.9062 56.7979H58.1934C57.4223 56.7979 56.7976 57.4228 56.7976 58.1936V64.9067C56.7976 65.6776 57.4226 66.3024 58.1934 66.3024H64.9062C65.6771 66.3024 66.3019 65.6774 66.3019 64.9067V58.1937C66.3021 57.4228 65.6772 56.7979 64.9062 56.7979Z" fill="#FF2A47"/>
<path d="M51.3215 13.8943V22.931C51.3215 23.7019 50.6966 24.3268 49.9258 24.3268H49.524C48.8768 24.3268 48.3146 23.882 48.1657 23.2522L47.2544 19.398C47.1055 18.7681 46.5432 18.3233 45.8961 18.3233H37.903C37.1321 18.3233 36.5072 18.9483 36.5072 19.7191V47.5244C36.5072 48.11 36.8727 48.6331 37.4224 48.8349L43.2153 50.9597L44.4994 51.4327C45.0483 51.6349 45.4127 52.1577 45.4127 52.7425V53.1071C45.4127 53.878 44.7877 54.5028 44.017 54.5028H22.9833C22.2124 54.5028 21.5875 53.8778 21.5875 53.1071V52.7425C21.5875 52.1577 21.9521 51.6349 22.5008 51.4327L23.7849 50.9597L29.5778 48.8349C30.1275 48.6333 30.493 48.11 30.493 47.5244V19.7191C30.493 18.9482 29.8681 18.3233 29.0973 18.3233H21.1041C20.4569 18.3233 19.8946 18.7681 19.7458 19.398L18.8345 23.2522C18.6856 23.882 18.1233 24.3268 17.4762 24.3268H17.0745C16.3036 24.3268 15.6787 23.7018 15.6787 22.931V13.8943C15.6787 13.1234 16.3037 12.4985 17.0745 12.4985H49.926C50.6967 12.4984 51.3215 13.1234 51.3215 13.8943Z" fill="#FF2A47"/>
<path d="M64.9062 10.9008C66.0608 10.9008 67 9.96167 67 8.8071V2.09375C67 0.939178 66.0608 0 64.9062 0H58.1937C57.0391 0 56.0999 0.939178 56.0999 2.09375V4.28499H10.9001V2.09375C10.9001 0.939178 9.96088 0 8.80631 0H2.09375C0.939178 0 0 0.939178 0 2.09375V8.8071C0 9.96167 0.939178 10.9008 2.09375 10.9008H4.75255V56.0998H2.09375C0.939178 56.0998 0 57.039 0 58.1936V64.9061C0 66.0607 0.939178 66.9999 2.09375 66.9999H8.80631C9.96088 66.9999 10.9001 66.0607 10.9001 64.9061V62.7149H56.0997V64.9061C56.0997 66.0607 57.0389 66.9999 58.1934 66.9999H64.906C66.0606 66.9999 66.9997 66.0607 66.9997 64.9061V58.1936C66.9997 57.039 66.0606 56.0998 64.906 56.0998H62.2472V10.9008H64.9062ZM57.4957 2.09388C57.4957 1.70889 57.8084 1.39588 58.1937 1.39588H64.9062C65.2912 1.39588 65.6043 1.70863 65.6043 2.09388V8.80723C65.6043 9.19222 65.2915 9.50523 64.9062 9.50523H58.1937C57.8087 9.50523 57.4957 9.19248 57.4957 8.80723V2.09388ZM1.39575 8.8071V2.09375C1.39575 1.70876 1.7085 1.39575 2.09375 1.39575H8.80631C9.1913 1.39575 9.50432 1.7085 9.50432 2.09375V8.8071C9.50432 9.19209 9.19156 9.5051 8.80631 9.5051H2.09375C1.70863 9.5051 1.39575 9.19235 1.39575 8.8071ZM9.50432 64.9064C9.50432 65.2914 9.19156 65.6044 8.80631 65.6044H2.09375C1.70876 65.6044 1.39575 65.2916 1.39575 64.9064V58.1938C1.39575 57.8088 1.7085 57.4958 2.09375 57.4958H8.80631C9.1913 57.4958 9.50432 57.8086 9.50432 58.1938V64.9064ZM65.6043 58.1938V64.9064C65.6043 65.2914 65.2915 65.6044 64.9062 65.6044H58.1937C57.8087 65.6044 57.4957 65.2916 57.4957 64.9064V58.1938C57.4957 57.8088 57.8084 57.4958 58.1937 57.4958H64.9062C65.2914 57.4958 65.6043 57.8086 65.6043 58.1938ZM60.8517 56.1001H58.1936C57.039 56.1001 56.0998 57.0392 56.0998 58.1938V61.3194H10.9001V58.1938C10.9001 57.0392 9.96088 56.1001 8.80631 56.1001H6.1483V10.9008H8.80644C9.96102 10.9008 10.9002 9.96167 10.9002 8.8071V5.68087H56.0998V8.8071C56.0998 9.96167 57.039 10.9008 58.1936 10.9008H60.8517V56.0999V56.1001Z" fill="#E14144"/>
<path d="M49.9257 11.8003H17.0745C15.9199 11.8003 14.9807 12.7395 14.9807 13.894V22.9308C14.9807 24.0854 15.9199 25.0245 17.0745 25.0245H17.4759C18.4519 25.0245 19.2895 24.3614 19.5138 23.4126L20.4245 19.5584C20.4994 19.2421 20.779 19.0214 21.104 19.0214H29.0974C29.4824 19.0214 29.7954 19.3341 29.7954 19.7194V47.5242C29.7954 47.8159 29.6113 48.079 29.3374 48.1799L22.26 50.7773C21.4401 51.0792 20.8894 51.869 20.8894 52.7421V53.1067C20.8894 54.2613 21.8286 55.2005 22.9832 55.2005H44.0167C45.1713 55.2005 46.1105 54.2613 46.1105 53.1067V52.7421C46.1105 51.869 45.5598 51.0792 44.7405 50.7773L37.6631 48.1799C37.3892 48.079 37.2051 47.8159 37.2051 47.5242V19.7192C37.2051 19.3341 37.5178 19.0212 37.9031 19.0212H45.8965C46.2216 19.0212 46.5011 19.2421 46.5754 19.5583L47.4867 23.4118C47.711 24.3612 48.5486 25.0244 49.5246 25.0244H49.9261C51.0806 25.0244 52.0198 24.0852 52.0198 22.9307V13.8939C52.0194 12.7395 51.0802 11.8003 49.9257 11.8003ZM50.6235 22.9308C50.6235 23.3159 50.3108 23.6288 49.9255 23.6288H49.5241C49.199 23.6288 48.9195 23.4079 48.8452 23.0911L47.9333 19.2368C47.709 18.288 46.8707 17.6255 45.8961 17.6255H37.9027C36.7481 17.6255 35.8089 18.5647 35.8089 19.7192V47.5241C35.8089 48.3985 36.361 49.1884 37.1817 49.4898L44.2576 52.0872C44.5309 52.1881 44.7143 52.4511 44.7143 52.7421V53.1067C44.7143 53.4917 44.4016 53.8047 44.0163 53.8047H22.9828C22.5978 53.8047 22.2848 53.492 22.2848 53.1067V52.7421C22.2848 52.4511 22.4689 52.1881 22.7421 52.0872L29.8181 49.4898C30.6387 49.1885 31.1908 48.3986 31.1908 47.5241V19.7192C31.1908 18.5647 30.2516 17.6255 29.097 17.6255H21.1036C20.129 17.6255 19.2907 18.288 19.0658 19.2368L18.1544 23.0916C18.0801 23.4079 17.8006 23.6287 17.4755 23.6287H17.0741C16.689 23.6287 16.3761 23.3159 16.3761 22.9307V13.8939C16.3761 13.5089 16.6888 13.1959 17.0741 13.1959H49.9253C50.3103 13.1959 50.6233 13.5087 50.6233 13.8939V22.9307H50.6235V22.9308Z" fill="#E14144"/>
</g>
<defs>
<clipPath id="clip0_153_20">
<rect width="67" height="67" fill="white"/>
</clipPath>
</defs>
</svg>
