<svg width="105" height="105" viewBox="0 0 105 105" fill="none" xmlns="http://www.w3.org/2000/svg">
<path d="M52.5002 105C81.4952 105 105 81.4952 105 52.5002C105 23.5053 81.4952 0.000224174 52.5002 0.000224174C23.5053 0.000224174 0.000224174 23.5053 0.000224174 52.5002C0.000224174 81.4952 23.5053 105 52.5002 105Z" fill="#FF6378"/>
<path d="M105 52.5002C105 38.0028 99.1239 24.8778 89.6233 15.3772L15.3772 89.6233C24.8778 99.1239 38.0028 105 52.5002 105C81.4952 105 105 81.4952 105 52.5002Z" fill="#FF1F3D"/>
<path d="M52.5002 90.6448C73.5669 90.6448 90.6448 73.5669 90.6448 52.5002C90.6448 31.4336 73.5669 14.3557 52.5002 14.3557C31.4336 14.3557 14.3557 31.4336 14.3557 52.5002C14.3557 73.5669 31.4336 90.6448 52.5002 90.6448Z" fill="#FFF36C"/>
<path d="M52.5002 90.6448C73.5669 90.6448 90.6448 73.5669 90.6448 52.5002C90.6448 41.9668 86.3752 32.4309 79.4725 25.5279L25.5279 79.4725C32.4309 86.3752 41.967 90.6448 52.5002 90.6448Z" fill="#FFC178"/>
<path d="M100.122 30.9806C102.525 28.5779 102.525 24.6824 100.122 22.2799L82.7205 4.87842C80.3178 2.47572 76.4224 2.47572 74.0199 4.87842L4.87842 74.0199C2.47572 76.4226 2.47572 80.318 4.87842 82.7205L22.2799 100.122C24.6826 102.525 28.5781 102.525 30.9806 100.122L100.122 30.9806Z" fill="#FF6378"/>
<path d="M22.2799 100.122C24.6826 102.525 28.5781 102.525 30.9806 100.122L100.122 30.9806C102.525 28.5779 102.525 24.6824 100.122 22.2799L91.4214 13.5791L13.5791 91.4214L22.2799 100.122Z" fill="#FF1F3D"/>
<path d="M20.1045 102.297L2.70303 84.8957C-0.901011 81.2916 -0.901011 75.4485 2.70303 71.8445L71.8447 2.70303C75.4488 -0.901011 81.2918 -0.901011 84.8959 2.70303L102.297 20.1045C105.901 23.7086 105.901 29.5517 102.297 33.1557L33.1557 102.297C29.5517 105.901 23.7086 105.901 20.1045 102.297ZM7.05356 80.5453L24.4551 97.9468C25.6564 99.1482 27.604 99.1482 28.8054 97.9468L97.9468 28.8054C99.1482 27.604 99.1482 25.6564 97.9468 24.4551L80.5454 7.05356C79.344 5.85221 77.3964 5.85221 76.195 7.05356L7.05356 76.1948C5.85221 77.3962 5.85221 79.344 7.05356 80.5453Z" fill="#FFF5F5"/>
<path d="M102.297 33.1557C104.099 31.3539 105 28.9923 105 26.6308V26.6298C105 24.2681 104.099 21.9063 102.297 20.1045L93.5966 11.404L89.2461 15.7543L97.9468 24.4551C99.1482 25.6564 99.1482 27.604 97.9468 28.8054L28.8054 97.9468C27.604 99.1482 25.6564 99.1482 24.4551 97.9468L15.7543 89.2461L11.404 93.5964L20.1045 102.297C23.7086 105.901 29.5517 105.901 33.1557 102.297L102.297 33.1557Z" fill="#E2DFF4"/>
<path d="M57.1385 35.5626C57.1204 35.5544 57.1022 35.5464 57.0837 35.5388C56.1734 35.1588 55.1351 35.3641 54.4378 36.0614C54.4372 36.062 54.4366 36.0626 54.4358 36.0634C53.7385 36.7621 53.5346 37.8021 53.9171 38.7122C53.9235 38.7274 53.93 38.7424 53.9366 38.7573L61.0181 54.551C61.4814 55.5846 62.6951 56.0468 63.7283 55.5834C64.7618 55.1199 65.2239 53.9067 64.7606 52.8733L63.5753 50.2294L68.5726 45.2321L71.2042 46.4215C72.0038 46.7831 72.9135 46.5893 73.4996 46.0029C73.6696 45.8329 73.8126 45.6297 73.9176 45.3973C74.3841 44.3654 73.9256 43.1507 72.8934 42.684L57.1385 35.5626ZM61.7796 46.2244L59.4948 41.1288L64.5777 43.4263L61.7796 46.2244Z" fill="#FFF5F5"/>
<path d="M89.0636 24.6377L85.6255 28.0758L82.7253 25.1756L85.8029 22.098C86.6037 21.2972 86.6037 19.9986 85.8029 19.1978C85.002 18.397 83.7035 18.397 82.9026 19.1978L79.825 22.2754L76.9248 19.3752L80.363 15.937C81.1638 15.1362 81.1638 13.8377 80.363 13.0368C79.5621 12.236 78.2636 12.236 77.4627 13.0368L72.5745 17.9251C71.7737 18.7259 71.7737 20.0245 72.5745 20.8253L84.1756 32.4264C84.9764 33.2272 86.275 33.2272 87.0758 32.4264L91.964 27.5381C92.7649 26.7373 92.7649 25.4387 91.964 24.6379C91.1632 23.8371 89.8642 23.8369 89.0636 24.6377Z" fill="#FFF5F5"/>
<path d="M40.9488 49.5506L37.6632 52.8361C37.2781 53.2213 37.0619 53.7436 37.0626 54.2883C37.0632 54.8328 37.2801 55.3547 37.6659 55.7392C37.6659 55.7392 42.1364 60.1931 43.4594 61.5159C45.0547 63.1112 49.2508 67.2773 49.293 67.3192C49.679 67.7025 50.2015 67.9166 50.7456 67.9147C51.287 67.9127 51.8054 67.6967 52.1881 67.314C52.1899 67.3122 52.1918 67.3103 52.1936 67.3085C52.2925 67.2088 54.6261 64.8572 55.5458 63.9046C58.9694 60.3592 58.4598 54.7916 54.3344 50.6662C49.9977 46.3294 44.6183 45.8811 40.9488 49.5506ZM52.5956 61.0553C52.1694 61.4964 51.4098 62.2679 50.7255 62.9611C49.3482 61.5926 47.3497 59.6056 46.3596 58.6154C45.5261 57.782 43.4446 55.707 42.0162 54.2836L43.8492 52.4506C46.2341 50.0657 49.3312 51.4631 51.4342 53.5662C53.5592 55.6917 54.7425 58.8314 52.5956 61.0553Z" fill="#FFF5F5"/>
<path d="M21.1202 69.3792C20.3194 70.18 20.3194 71.4786 21.1202 72.2794L29.0947 80.2539C29.6504 80.8096 30.2101 81.6847 29.5989 83.5351C29.4109 84.105 29.0922 84.6091 28.625 85.0765C28.6234 85.0781 28.622 85.0796 28.6203 85.0812C28.1076 85.5927 27.5377 85.9118 26.8774 86.057C25.3126 86.4019 24.5723 86.0531 23.9423 85.4231L15.9594 77.4402C15.1586 76.6394 13.86 76.6394 13.0592 77.4402C12.2584 78.241 12.2584 79.5396 13.0592 80.3404L21.0419 88.3231C22.7924 90.0736 25.053 90.6589 27.7594 90.0623C29.1851 89.7486 30.449 89.0497 31.5166 87.9849C31.5193 87.9822 31.522 87.9796 31.5248 87.9767C32.443 87.0586 33.1056 85.9967 33.4936 84.8209C34.7181 81.1123 33.3543 78.7131 31.9947 77.3534L24.0202 69.379C23.2196 68.5783 21.921 68.5784 21.1202 69.3792Z" fill="#FFF5F5"/>
<path d="M67.5503 22.9491L61.1437 29.3557C60.3428 30.1566 60.3428 31.4551 61.1437 32.2559C61.9445 33.0568 63.243 33.0568 64.0439 32.2559L65.7842 30.5156L75.9349 40.6664C76.7357 41.4672 78.0343 41.4672 78.8351 40.6664C79.636 39.8656 79.636 38.567 78.8351 37.7662L68.6844 27.6154L70.4505 25.8493C71.2513 25.0485 71.2513 23.7499 70.4505 22.9491C69.6497 22.1483 68.3511 22.1483 67.5503 22.9491Z" fill="#FFF5F5"/>
<path d="M29.3969 61.1024L26.1668 64.3326C25.7814 64.718 25.5653 65.2409 25.5661 65.786C25.5667 66.3288 25.7831 66.8489 26.167 67.2326L37.7678 78.8339C38.5687 79.6347 39.8672 79.6347 40.668 78.8339C41.4689 78.0331 41.4689 76.7345 40.668 75.9337L37.0712 72.3368C37.7194 71.682 38.4337 70.9614 38.8449 70.5504C41.4851 67.9102 41.5138 63.6431 38.9091 61.0384C36.3042 58.4333 32.0371 58.4623 29.3969 61.1024ZM35.9447 67.65C35.5349 68.0597 34.8299 68.7707 34.1855 69.4218C33.5112 68.7543 32.7684 68.0177 32.3488 67.5983C31.9906 67.24 31.224 66.4771 30.5214 65.7784L32.2972 64.0026C33.3205 62.9793 35.0202 62.95 36.0087 63.9385C36.9971 64.9269 36.9678 66.6266 35.9447 67.65Z" fill="#FFF5F5"/>
<path d="M64.5777 43.4263L61.7796 46.2244L60.8498 44.1507L57.7463 47.2541L61.0181 54.551C61.4814 55.5846 62.6951 56.0468 63.7283 55.5834C64.7618 55.1199 65.2239 53.9067 64.7606 52.8733L63.5753 50.2294L68.5726 45.2321L71.2042 46.4215C72.0038 46.7831 72.9135 46.5893 73.4996 46.0029C73.6696 45.8329 73.8126 45.6297 73.9176 45.3973C74.3841 44.3654 73.9256 43.1507 72.8934 42.684L65.6092 39.3912L62.5095 42.491L64.5777 43.4263Z" fill="#E2DFF4"/>
<path d="M89.0636 24.6377L85.6255 28.0758L82.7253 25.1756L85.8029 22.098C86.6037 21.2972 86.6037 19.9986 85.8029 19.1978L78.3747 26.6257L84.1756 32.4264C84.9764 33.2272 86.275 33.2272 87.0758 32.4264L91.964 27.5381C92.7649 26.7373 92.7649 25.4387 91.964 24.6379C91.1632 23.8371 89.8642 23.8369 89.0636 24.6377Z" fill="#E2DFF4"/>
<path d="M51.4342 53.5662C53.5592 55.6917 54.7425 58.8314 52.5956 61.0553C52.1694 61.4964 51.4098 62.2679 50.7255 62.9611C49.3537 61.5981 47.3665 59.6224 46.3723 58.6282L43.4721 61.5284C45.0764 63.1327 49.2508 67.2773 49.293 67.3192C49.679 67.7025 50.2015 67.9166 50.7456 67.9147C51.287 67.9127 51.8054 67.6967 52.1881 67.314C52.1899 67.3122 52.1918 67.3103 52.1936 67.3085C52.2925 67.2088 54.6261 64.8572 55.5458 63.9046C58.9694 60.3592 58.4598 54.7916 54.3344 50.6662L51.4342 53.5662C51.434 53.5662 51.434 53.5662 51.4342 53.5662Z" fill="#E2DFF4"/>
<path d="M29.0947 80.2539C29.6504 80.8096 30.2101 81.6847 29.5989 83.5351C29.4109 84.105 29.0922 84.6091 28.625 85.0765C28.6234 85.0781 28.622 85.0796 28.6203 85.0812C28.1076 85.5927 27.5377 85.9118 26.8774 86.057C25.3126 86.4019 24.5723 86.0531 23.9423 85.4231L21.7598 83.2406L18.8596 86.1408L21.0419 88.3231C22.7924 90.0736 25.053 90.6589 27.7594 90.0623C29.1851 89.7486 30.449 89.0497 31.5166 87.9849L31.5248 87.9767C32.443 87.0586 33.1056 85.9967 33.4936 84.8209C34.7181 81.1123 33.3543 78.7131 31.9947 77.3534L29.8208 75.1794L26.9206 78.0796L29.0947 80.2539Z" fill="#E2DFF4"/>
<path d="M75.9349 40.6664C76.7357 41.4672 78.0343 41.4672 78.8351 40.6664C79.636 39.8656 79.636 38.567 78.8351 37.7662L73.0347 31.9657L70.1345 34.866L75.9349 40.6664Z" fill="#E2DFF4"/>
<path d="M37.7678 78.8339C38.5687 79.6347 39.8672 79.6347 40.668 78.8339C41.4689 78.0331 41.4689 76.7345 40.668 75.9337L37.0712 72.3368C37.7194 71.682 38.4337 70.9614 38.8449 70.5504C40.5436 68.8517 41.1596 66.4798 40.6904 64.3103L31.9676 73.0331L37.7678 78.8339Z" fill="#E2DFF4"/>
</svg>
