<svg width="55" height="55" viewBox="0 0 55 55" fill="none" xmlns="http://www.w3.org/2000/svg">
<g clip-path="url(#clip0_2328_12)">
<path fill-rule="evenodd" clip-rule="evenodd" d="M27.5 27.1171C30.3242 27.1171 32.614 29.4069 32.614 32.2311C32.614 33.6718 32.0176 34.9765 31.0549 35.9071C33.1743 36.4891 34.7033 38.433 34.7033 40.6853V44.8323C34.7033 45.2778 34.3422 45.6389 33.8967 45.6389H21.1033C20.6578 45.6389 20.2967 45.2778 20.2967 44.8323V40.6853C20.2967 38.433 21.8259 36.4892 23.9451 35.9071C21.8909 33.9214 21.8628 30.636 23.8839 28.615C24.8094 27.6896 26.0879 27.1171 27.5 27.1171ZM13.9831 47.6125H41.5701C42.5097 47.6125 43.2757 48.3784 43.2757 49.3181V51.3922C43.2757 52.3318 42.5099 53.0978 41.5701 53.0978H13.9831C13.0435 53.0978 12.2775 52.332 12.2775 51.3922V49.3181C12.2775 48.3785 13.0435 47.6125 13.9831 47.6125ZM41.57 49.2258H13.9831C13.934 49.2258 13.8908 49.269 13.8908 49.3181V51.3922C13.8908 51.4414 13.9339 51.4845 13.9831 51.4845H41.5701C41.6193 51.4845 41.6624 51.4414 41.6624 51.3922V49.3181C41.6623 49.2689 41.6192 49.2258 41.57 49.2258ZM45.7967 9.14385C41.0141 4.6527 34.5784 1.90137 27.5 1.90137C12.7352 1.90137 0.765625 13.871 0.765625 28.6357C0.765625 29.0812 1.12677 29.4424 1.57227 29.4424H8.84862C9.29412 29.4424 9.65527 29.0812 9.65527 28.6357C9.65527 18.7802 17.6445 10.7909 27.5001 10.7909C34.3123 10.7909 40.4309 14.6375 43.443 20.6076L31.9016 24.121C31.1594 24.324 31.0922 25.2544 31.6884 25.5992C33.7079 26.7671 34.9715 28.9093 34.9715 31.2831H34.9738C34.9505 31.9773 35.7696 32.3767 36.3008 31.9211L44.8763 24.5505C45.1885 25.8844 45.3448 27.2443 45.3448 28.6355C45.3448 29.081 45.706 29.4422 46.1515 29.4422H53.4277C53.8732 29.4422 54.2344 29.081 54.2344 28.6355C54.2344 21.2531 51.242 14.5695 46.404 9.73154C46.2796 9.6072 46.3134 9.48483 46.1072 9.30852C46.014 9.22889 45.9078 9.17415 45.7967 9.14385ZM45.5632 11.178C49.7586 15.5179 52.404 21.3655 52.6078 27.8291H46.9413C46.8792 26.3195 46.643 24.8242 46.2385 23.3799L49.8649 20.263L49.8642 20.2622C50.5193 19.701 49.9375 18.6311 49.1086 18.8829L45.0044 20.1323C44.1779 18.4339 43.1111 16.8738 41.8485 15.4958L45.5632 11.178ZM40.7102 14.3519C37.3666 11.2579 33.0112 9.38653 28.3066 9.19432V3.52778C34.5005 3.72322 40.1288 6.16031 44.4067 10.0551L40.7102 14.3519ZM26.6934 9.19444C21.9496 9.38791 17.6435 11.2797 14.3672 14.2783L10.6724 9.98356C14.9406 6.1307 20.5377 3.72195 26.6934 3.52767V9.19444ZM13.223 15.4156C10.1779 18.7027 8.2539 23.043 8.05869 27.8291H2.39204C2.59716 21.3272 5.27256 15.4485 9.51111 11.1009L13.223 15.4156ZM36.4285 29.6899L45.9179 21.5338L33.8674 25.2022C35.1773 26.3774 36.0828 27.9492 36.4285 29.6899ZM27.5052 37.3449H25.2503C23.4147 37.3449 21.91 38.8497 21.91 40.6852V44.0255H33.0901V40.6852C33.0901 38.8497 31.5854 37.3449 29.7498 37.3449H27.5052ZM27.495 35.7318C30.617 35.7318 32.1713 31.9514 29.9755 29.7556C28.6084 28.3886 26.3916 28.3886 25.0245 29.7556C23.6575 31.1226 23.6575 33.3395 25.0245 34.7065C25.6569 35.3388 26.5302 35.7304 27.495 35.7318Z" fill="#FF5E14"/>
</g>
<defs>
<clipPath id="clip0_2328_12">
<rect width="55" height="55" fill="white"/>
</clipPath>
</defs>
</svg>
