<svg width="55" height="55" viewBox="0 0 55 55" fill="none" xmlns="http://www.w3.org/2000/svg">
<g clip-path="url(#clip0_2328_61)">
<path d="M9.6875 15.0312C10.1773 15.0312 10.5781 14.6305 10.5781 14.1406V9.6875H44.4219V24.8281C44.4219 25.318 44.8227 25.7188 45.3125 25.7188C45.8023 25.7188 46.2031 25.318 46.2031 24.8281V6.125C46.2031 3.17703 43.8073 0.78125 40.8594 0.78125H14.1406C11.1927 0.78125 8.79688 3.17703 8.79688 6.125V14.1406C8.79688 14.6305 9.19766 15.0312 9.6875 15.0312ZM10.5781 6.125C10.5781 4.15672 12.1723 2.5625 14.1406 2.5625H40.8594C42.8277 2.5625 44.4219 4.15672 44.4219 6.125V7.90625H10.5781V6.125Z" fill="#FF5E14"/>
<path d="M50.6562 27.5H39.9688C38.0005 27.5 36.4062 29.0942 36.4062 31.0625V50.6562C36.4062 51.3064 36.5933 51.912 36.905 52.4375H27.0102C27.313 51.912 27.5089 51.3064 27.5089 50.6562V20.375C27.5089 18.4067 25.9147 16.8125 23.9464 16.8125H4.34375C2.37547 16.8125 0.78125 18.4067 0.78125 20.375V50.6562C0.78125 52.6245 2.37547 54.2188 4.34375 54.2188H50.6562C52.6245 54.2188 54.2188 52.6245 54.2188 50.6562V31.0625C54.2188 29.0942 52.6245 27.5 50.6562 27.5ZM23.9375 52.4375H4.34375C3.36406 52.4375 2.5625 51.6359 2.5625 50.6562H25.7188C25.7188 51.6359 24.9172 52.4375 23.9375 52.4375ZM25.7188 48.875H2.5625V22.1562H25.7188V48.875ZM2.5625 20.375C2.5625 19.3953 3.36406 18.5938 4.34375 18.5938H23.9375C24.9172 18.5938 25.7188 19.3953 25.7188 20.375H2.5625ZM52.4375 50.6562C52.4375 51.6359 51.6359 52.4375 50.6562 52.4375H39.9688C38.9891 52.4375 38.1875 51.6359 38.1875 50.6562V31.0625C38.1875 30.0828 38.9891 29.2812 39.9688 29.2812H50.6562C51.6359 29.2812 52.4375 30.0828 52.4375 31.0625V50.6562Z" fill="#FF5E14"/>
<path d="M47.0938 48.875H43.5312C43.0414 48.875 42.6406 49.2758 42.6406 49.7656C42.6406 50.2555 43.0414 50.6562 43.5312 50.6562H47.0938C47.5836 50.6562 47.9844 50.2555 47.9844 49.7656C47.9844 49.2758 47.5836 48.875 47.0938 48.875Z" fill="#FF5E14"/>
<path d="M40.8594 4.34375H39.0781C38.5883 4.34375 38.1875 4.74453 38.1875 5.23438C38.1875 5.72422 38.5883 6.125 39.0781 6.125H40.8594C41.3492 6.125 41.75 5.72422 41.75 5.23438C41.75 4.74453 41.3492 4.34375 40.8594 4.34375Z" fill="#FF5E14"/>
<path d="M35.5156 4.34375H33.7344C33.2445 4.34375 32.8438 4.74453 32.8438 5.23438C32.8438 5.72422 33.2445 6.125 33.7344 6.125H35.5156C36.0055 6.125 36.4062 5.72422 36.4062 5.23438C36.4062 4.74453 36.0055 4.34375 35.5156 4.34375Z" fill="#FF5E14"/>
</g>
<defs>
<clipPath id="clip0_2328_61">
<rect width="55" height="55" fill="white"/>
</clipPath>
</defs>
</svg>
