<svg width="55" height="55" viewBox="0 0 55 55" fill="none" xmlns="http://www.w3.org/2000/svg">
<g clip-path="url(#clip0_2328_61)">
<path d="M51.1381 23.9795C50.9276 17.9802 48.4981 12.3702 44.2322 8.10422C39.7609 3.63203 33.8183 1.16992 27.5002 1.16992C14.7393 1.16992 4.3125 11.3269 3.86305 23.9795C1.9157 24.8448 0.552734 26.7939 0.552734 29.0592V35.3C0.552734 38.3645 3.04578 40.8584 6.11117 40.8584C8.09461 40.8584 9.70766 39.2454 9.70766 37.262V27.0964C9.70766 25.2341 8.27937 23.7156 6.46352 23.5352C7.13383 12.512 16.3102 3.74805 27.5002 3.74805C33.1308 3.74805 38.4254 5.94289 42.4103 9.92781C46.0695 13.587 48.2111 18.3566 48.5334 23.536C46.7192 23.7182 45.2935 25.2359 45.2935 27.0964V37.2611C45.2935 39.1388 46.7441 40.6668 48.5815 40.8258V43.3944C48.5815 46.2871 46.2277 48.6401 43.335 48.6401H39.4498C39.259 48.0952 38.9599 47.5916 38.5405 47.174C37.8058 46.4358 36.8261 46.0293 35.7828 46.0293H31.7781C31.2032 46.0293 30.6515 46.1513 30.1462 46.3868C28.7677 47.0202 27.8774 48.4106 27.8774 49.9291C27.8774 50.9724 28.2839 51.9521 29.0204 52.6852C29.7569 53.4234 30.7366 53.8298 31.7781 53.8298H35.7828C37.4431 53.8298 38.9066 52.7565 39.4523 51.2182H43.335C47.6499 51.2182 51.1596 47.7085 51.1596 43.3944V40.3669C53.0949 39.4963 54.4476 37.5541 54.4476 35.2983V29.0575C54.4476 26.7939 53.0846 24.8448 51.1381 23.9795ZM7.12867 27.0964V37.2611C7.12867 37.8223 6.67234 38.2794 6.11031 38.2794C4.46719 38.2794 3.13 36.9423 3.13 35.2991V29.0584C3.13 27.4144 4.46719 26.078 6.11031 26.078C6.67234 26.078 7.12867 26.5352 7.12867 27.0964ZM37.0762 50.2059C36.9481 50.8126 36.4033 51.2534 35.782 51.2534H31.7773C31.4249 51.2534 31.0941 51.1159 30.8414 50.8633C30.5922 50.6149 30.4547 50.2832 30.4547 49.9309C30.4547 49.4161 30.7563 48.946 31.229 48.7286C31.3974 48.6495 31.5822 48.6091 31.7773 48.6091H35.782C36.1343 48.6091 36.4652 48.7458 36.717 48.9984C36.9662 49.2468 37.1037 49.5785 37.1037 49.9309C37.1045 50.0254 37.0942 50.1199 37.0762 50.2059ZM51.8695 35.2991C51.8695 36.9423 50.5323 38.2794 48.8891 38.2794C48.328 38.2794 47.8708 37.8231 47.8708 37.2611V27.0964C47.8708 26.5352 48.3271 26.078 48.8891 26.078C50.5323 26.078 51.8695 27.4152 51.8695 29.0584V35.2991Z" fill="#FF5E14"/>
<path d="M35.8478 35.7436C38.8599 35.7436 41.31 33.2927 41.31 30.2814V19.1516C41.31 17.6959 40.7411 16.3243 39.7081 15.2913C38.6752 14.2584 37.3045 13.6895 35.8478 13.6895H19.1536C16.1415 13.6895 13.6914 16.1395 13.6914 19.1516V30.2814C13.6914 33.2935 16.1415 35.7436 19.1536 35.7436H19.2559V38.6277C19.2559 39.7277 19.9116 40.7039 20.9256 41.1155C21.253 41.247 21.5934 41.3123 21.9302 41.3123C22.6323 41.3123 23.3164 41.0339 23.8174 40.5157L28.6153 35.7436H35.8478ZM27.1759 33.5402L21.9835 38.7041C21.9603 38.7282 21.9431 38.7462 21.8941 38.7248C21.8348 38.7007 21.8348 38.662 21.8348 38.6277V34.4545C21.8348 33.743 21.2582 33.1655 20.5458 33.1655H19.1545C17.5638 33.1655 16.2704 31.8712 16.2704 30.2814V19.1516C16.2704 17.5609 17.5638 16.2676 19.1545 16.2676H35.8487C36.617 16.2676 37.3397 16.5684 37.8862 17.1141C38.4328 17.6606 38.7327 18.3842 38.7327 19.1516V30.2814C38.7327 31.8721 37.4385 33.1655 35.8487 33.1655H28.0851C27.7439 33.1655 27.4173 33.3004 27.1759 33.5402Z" fill="#FF5E14"/>
<path d="M21.2377 23.0205C20.1893 23.0205 19.3359 23.8747 19.3359 24.9223C19.3359 25.9699 20.1902 26.8241 21.2377 26.8241C22.287 26.8241 23.1412 25.9699 23.1412 24.9223C23.1412 23.8747 22.2879 23.0205 21.2377 23.0205Z" fill="#FF5E14"/>
<path d="M27.4995 23.0205C26.451 23.0205 25.5977 23.8747 25.5977 24.9223C25.5977 25.9699 26.4519 26.8241 27.4995 26.8241C28.5496 26.8241 29.403 25.9699 29.403 24.9223C29.403 23.8747 28.5496 23.0205 27.4995 23.0205Z" fill="#FF5E14"/>
<path d="M33.7612 23.0205C32.7127 23.0205 31.8594 23.8747 31.8594 24.9223C31.8594 25.9699 32.7136 26.8241 33.7612 26.8241C34.8105 26.8241 35.6647 25.9699 35.6647 24.9223C35.6647 23.8747 34.8105 23.0205 33.7612 23.0205Z" fill="#FF5E14"/>
</g>
<defs>
<clipPath id="clip0_2328_61">
<rect width="55" height="55" fill="white"/>
</clipPath>
</defs>
</svg>
